<svg width="115" height="540" viewBox="0 0 115 540" fill="none" xmlns="http://www.w3.org/2000/svg">
<path d="M44.0635 42.7705L44.0635 71.8477L79.4395 60.9346C80.5137 60.5928 82.2471 60.1289 84.6396 59.543C87.0322 58.957 90.1084 58.2002 93.8682 57.2725C91.2314 56.6377 88.7168 56.0029 86.3242 55.3682C83.9316 54.7822 81.6367 54.1719 79.4395 53.5371L44.0635 42.7705ZM4 1.82813L111.227 38.8154L111.227 75.4365L4 112.497L4 83.4199L23.1895 78L23.1895 36.4717L4 30.9053L4 1.82813ZM68.3799 149.924L68.3799 155.783C68.3799 163.01 69.1611 167.966 70.7236 170.651C72.335 173.337 75.0938 174.68 79 174.68C83.0527 174.68 85.8848 173.41 87.4961 170.871C89.1563 168.381 89.9863 163.498 89.9863 156.223L89.9863 149.924L68.3799 149.924ZM4 122.824L111.227 122.824L111.227 152.194C111.227 164.304 110.836 172.751 110.055 177.536C109.273 182.37 107.931 186.521 106.026 189.987C103.829 193.942 100.875 196.945 97.1641 198.996C93.502 201.096 89.2539 202.146 84.4199 202.146C78.3164 202.146 73.458 200.583 69.8447 197.458C66.2803 194.382 63.5703 189.45 61.7148 182.663C61.1289 190.28 58.4434 196.237 53.6582 200.534C48.9219 204.831 42.5742 206.979 34.6152 206.979C28.9023 206.979 23.873 205.759 19.5273 203.317C15.1816 200.925 11.8125 197.482 9.41992 192.99C7.4668 189.328 6.0752 184.812 5.24512 179.44C4.41504 174.069 4 165.28 4 153.073L4 122.824ZM25.8994 149.924L25.8994 160.178C25.8994 167.111 26.7539 172.019 28.4629 174.899C30.2207 177.78 33.126 179.221 37.1787 179.221C41.6709 179.221 44.7959 177.902 46.5537 175.266C48.3604 172.629 49.2637 167.746 49.2637 160.617L49.2637 149.924L25.8994 149.924ZM57.3936 334.714C49.6787 334.714 42.4522 333.298 35.7139 330.466C28.9756 327.634 22.9453 323.508 17.6231 318.088C12.3496 312.619 8.27246 306.369 5.39161 299.338C2.55957 292.307 1.14356 285.007 1.14356 277.438C1.14356 269.772 2.55957 262.424 5.3916 255.393C8.27246 248.41 12.3496 242.258 17.623 236.936C22.9453 231.418 29 227.219 35.7871 224.338C42.5742 221.506 49.7764 220.09 57.3936 220.09C65.0596 220.09 72.2617 221.506 79 224.338C85.7871 227.219 91.8418 231.418 97.1641 236.936C102.438 242.258 106.49 248.41 109.322 255.393C112.203 262.424 113.644 269.772 113.644 277.438C113.644 285.056 112.203 292.38 109.322 299.411C106.49 306.491 102.438 312.717 97.1641 318.088C91.8906 323.459 85.8604 327.561 79.0732 330.393C72.2861 333.273 65.0596 334.714 57.3936 334.714ZM25.8994 277.438C25.8994 285.544 28.8779 292.233 34.835 297.507C40.792 302.829 48.3115 305.49 57.3936 305.49C66.3779 305.49 73.8731 302.805 79.8789 297.434C85.8848 292.063 88.8877 285.397 88.8877 277.438C88.8877 269.333 85.8848 262.619 79.8789 257.297C73.9219 252.023 66.4268 249.387 57.3936 249.387C48.2139 249.387 40.6699 251.999 34.7617 257.224C28.8535 262.448 25.8994 269.187 25.8994 277.438ZM111.227 352.438L111.227 381.589L59.0781 381.589C51.4121 381.589 45.8945 381.784 42.5254 382.175C39.2051 382.565 36.4219 383.225 34.1758 384.152C31.4414 385.275 29.3418 387.229 27.877 390.012C26.4609 392.795 25.7529 396.188 25.7529 400.192C25.7529 404.196 26.4609 407.565 27.877 410.3C29.3418 413.083 31.4414 415.061 34.1758 416.232C36.4219 417.16 39.2051 417.819 42.5254 418.21C45.8945 418.601 51.4121 418.796 59.0781 418.796L66.4023 418.796L111.227 418.796L111.227 447.873L54.5371 447.873C42.7695 447.873 34.0781 447.165 28.4629 445.749C22.8965 444.333 18.1357 441.94 14.1807 438.571C9.83497 434.909 6.56348 429.88 4.36622 423.483C2.21778 417.087 1.14356 409.323 1.14356 400.192C1.14356 391.013 2.21778 383.225 4.36622 376.828C6.56348 370.48 9.83497 365.451 14.1807 361.74C18.1357 358.42 22.8965 356.027 28.4629 354.563C34.0781 353.146 42.7695 352.438 54.5371 352.438L65.6699 352.438L111.227 352.438ZM4.00001 485.593L85.8848 485.593L85.8848 461.569L111.227 461.569L111.227 538.84L85.8848 538.84L85.8848 514.816L4.00001 514.816L4.00001 485.593Z" fill="white"/>
<path d="M44.0635 42.7705L44.3546 41.8138L43.0635 41.4209L43.0635 42.7705L44.0635 42.7705ZM44.0635 71.8477L43.0635 71.8477L43.0635 73.2026L44.3583 72.8032L44.0635 71.8477ZM79.4395 60.9346L79.7342 61.8902L79.7427 61.8875L79.4395 60.9346ZM93.8682 57.2725L94.1077 58.2433L94.1022 56.3002L93.8682 57.2725ZM86.3242 55.3682L86.5807 54.4016L86.5714 54.3991L86.5621 54.3969L86.3242 55.3682ZM79.4395 53.5371L79.1483 54.4938L79.1551 54.4959L79.1619 54.4978L79.4395 53.5371ZM4 1.82813L4.3261 0.882788L3 0.42536L3 1.82813L4 1.82813ZM111.227 38.8154L112.227 38.8154L112.227 38.1026L111.553 37.8701L111.227 38.8154ZM111.227 75.4365L111.553 76.3817L112.227 76.1489L112.227 75.4365L111.227 75.4365ZM4 112.497L3 112.497L3 113.901L4.32666 113.442L4 112.497ZM4 83.4199L3.7282 82.4576L3 82.6632L3 83.4199L4 83.4199ZM23.1895 78L23.4613 78.9624L24.1895 78.7567L24.1895 78L23.1895 78ZM23.1895 36.4717L24.1895 36.4717L24.1895 35.7205L23.468 35.5113L23.1895 36.4717ZM4 30.9053L3 30.9053L3 31.6564L3.72141 31.8657L4 30.9053ZM43.0635 42.7705L43.0635 71.8477L45.0635 71.8477L45.0635 42.7705L43.0635 42.7705ZM44.3583 72.8032L79.7342 61.8901L79.1447 59.979L43.7687 70.8921L44.3583 72.8032ZM79.7427 61.8875C80.7822 61.5567 82.4875 61.0996 84.8775 60.5143L84.4018 58.5717C82.0066 59.1582 80.2451 59.6288 79.1362 59.9816L79.7427 61.8875ZM84.8775 60.5143C87.2709 59.9281 90.3477 59.1711 94.1077 58.2433L93.6286 56.3016C89.8691 57.2292 86.7936 57.9859 84.4018 58.5717L84.8775 60.5143ZM94.1022 56.3002C91.4723 55.6671 88.9651 55.0342 86.5807 54.4016L86.0678 56.3347C88.4685 56.9716 90.9906 57.6083 93.6341 58.2447L94.1022 56.3002ZM86.5621 54.3969C84.1818 53.8139 81.9002 53.2071 79.717 52.5764L79.1619 54.4978C81.3733 55.1367 83.6815 55.7505 86.0864 56.3395L86.5621 54.3969ZM79.7306 52.5804L44.3546 41.8138L43.7723 43.7272L79.1483 54.4938L79.7306 52.5804ZM3.6739 2.77347L110.9 39.7608L111.553 37.8701L4.3261 0.882788L3.6739 2.77347ZM110.227 38.8154L110.227 75.4365L112.227 75.4365L112.227 38.8154L110.227 38.8154ZM110.9 74.4914L3.67334 111.552L4.32666 113.442L111.553 76.3817L110.9 74.4914ZM5 112.497L5 83.4199L3 83.4199L3 112.497L5 112.497ZM4.27181 84.3823L23.4613 78.9624L22.9176 77.0377L3.7282 82.4576L4.27181 84.3823ZM24.1895 78L24.1895 36.4717L22.1895 36.4717L22.1895 78L24.1895 78ZM23.468 35.5113L4.2786 29.9449L3.72141 31.8657L22.9109 37.4321L23.468 35.5113ZM5 30.9053L5 1.82813L3 1.82813L3 30.9053L5 30.9053ZM68.3799 149.924L68.3799 148.924L67.3799 148.924L67.3799 149.924L68.3799 149.924ZM70.7236 170.651L69.8592 171.154L69.8661 171.166L70.7236 170.651ZM87.4961 170.871L86.664 170.316L86.6578 170.326L86.6518 170.335L87.4961 170.871ZM89.9863 149.924L90.9863 149.924L90.9863 148.924L89.9863 148.924L89.9863 149.924ZM4 122.824L4 121.824L3 121.824L3 122.824L4 122.824ZM111.227 122.824L112.227 122.824L112.227 121.824L111.227 121.824L111.227 122.824ZM110.055 177.536L109.068 177.375L109.067 177.377L110.055 177.536ZM106.026 189.987L106.901 190.473L106.903 190.469L106.026 189.987ZM97.1641 198.996L96.6804 198.121L96.6735 198.125L96.6667 198.129L97.1641 198.996ZM69.8447 197.458L70.4989 196.702L70.4981 196.701L69.8447 197.458ZM61.7148 182.663L62.6795 182.399L60.7178 182.586L61.7148 182.663ZM53.6582 200.534L52.9901 199.79L52.9863 199.794L53.6582 200.534ZM19.5273 203.317L20.0172 202.446L20.0096 202.441L19.5273 203.317ZM9.41992 192.99L10.3025 192.52L10.3023 192.52L9.41992 192.99ZM25.8994 149.924L25.8994 148.924L24.8994 148.924L24.8994 149.924L25.8994 149.924ZM28.4629 174.899L27.6028 175.41L27.6093 175.42L28.4629 174.899ZM46.5537 175.266L45.7287 174.7L45.7217 174.711L46.5537 175.266ZM49.2637 149.924L50.2637 149.924L50.2637 148.924L49.2637 148.924L49.2637 149.924ZM67.3799 149.924L67.3799 155.783L69.3799 155.783L69.3799 149.924L67.3799 149.924ZM67.3799 155.783C67.3799 159.428 67.5766 162.529 67.978 165.076C68.3775 167.61 68.9892 169.659 69.8593 171.154L71.588 170.148C70.8955 168.958 70.3354 167.186 69.9536 164.764C69.5738 162.355 69.3799 159.365 69.3799 155.783L67.3799 155.783ZM69.8661 171.166C71.7045 174.23 74.843 175.68 79 175.68L79 173.68C75.3445 173.68 72.9654 172.444 71.5811 170.137L69.8661 171.166ZM79 175.68C83.2625 175.68 86.4844 174.332 88.3404 171.407L86.6518 170.335C85.2851 172.489 82.843 173.68 79 173.68L79 175.68ZM88.3281 171.426C89.2709 170.012 89.9245 168.01 90.3496 165.509C90.7773 162.993 90.9863 159.893 90.9863 156.223L88.9863 156.223C88.9863 159.828 88.7803 162.807 88.3779 165.174C87.9729 167.556 87.3815 169.24 86.664 170.316L88.3281 171.426ZM90.9863 156.223L90.9863 149.924L88.9863 149.924L88.9863 156.223L90.9863 156.223ZM89.9863 148.924L68.3799 148.924L68.3799 150.924L89.9863 150.924L89.9863 148.924ZM4 123.824L111.227 123.824L111.227 121.824L4 121.824L4 123.824ZM110.227 122.824L110.227 152.194L112.227 152.194L112.227 122.824L110.227 122.824ZM110.227 152.194C110.227 164.306 109.834 172.679 109.068 177.375L111.042 177.697C111.837 172.823 112.227 164.301 112.227 152.194L110.227 152.194ZM109.067 177.377C108.3 182.124 106.988 186.16 105.15 189.506L106.903 190.469C108.873 186.881 110.247 182.617 111.042 177.696L109.067 177.377ZM105.152 189.502C103.04 193.304 100.216 196.167 96.6804 198.121L97.6478 199.871C101.534 197.724 104.619 194.58 106.901 190.473L105.152 189.502ZM96.6667 198.129C93.1768 200.129 89.1051 201.146 84.4199 201.146L84.4199 203.146C89.4027 203.146 93.8271 202.062 97.6614 199.864L96.6667 198.129ZM84.4199 201.146C78.4882 201.146 73.8846 199.63 70.4989 196.702L69.1906 198.214C73.0314 201.536 78.1446 203.146 84.4199 203.146L84.4199 201.146ZM70.4981 196.701C67.1415 193.804 64.5069 189.084 62.6795 182.399L60.7502 182.927C62.6338 189.816 65.4191 194.96 69.1914 198.215L70.4981 196.701ZM60.7178 182.586C60.1476 189.998 57.5487 195.697 52.9901 199.79L54.3263 201.278C59.3381 196.778 62.1102 190.562 62.7119 182.74L60.7178 182.586ZM52.9863 199.794C48.476 203.885 42.3891 205.979 34.6152 205.979L34.6152 207.979C42.7593 207.979 49.3677 205.777 54.3301 201.275L52.9863 199.794ZM34.6152 205.979C29.0485 205.979 24.1926 204.791 20.0171 202.446L19.0376 204.189C23.5535 206.726 28.7562 207.979 34.6152 207.979L34.6152 205.979ZM20.0096 202.441C15.8385 200.145 12.6064 196.846 10.3025 192.52L8.53731 193.46C11.0186 198.119 14.5247 201.705 19.045 204.193L20.0096 202.441ZM10.3023 192.52C8.41561 188.982 7.0513 184.58 6.23339 179.288L4.25685 179.593C5.09909 185.043 6.51799 189.674 8.53757 193.461L10.3023 192.52ZM6.23339 179.288C5.41599 173.999 5 165.276 5 153.073L3 153.073C3 165.284 3.4141 174.14 4.25685 179.593L6.23339 179.288ZM5 153.073L5 122.824L3 122.824L3 153.073L5 153.073ZM24.8994 149.924L24.8994 160.178L26.8994 160.178L26.8994 149.924L24.8994 149.924ZM24.8994 160.178C24.8994 167.136 25.7468 172.281 27.6028 175.41L29.323 174.389C27.761 171.756 26.8994 167.086 26.8994 160.178L24.8994 160.178ZM27.6093 175.42C29.5875 178.662 32.8592 180.221 37.1787 180.221L37.1787 178.221C33.3928 178.221 30.8539 176.898 29.3165 174.379L27.6093 175.42ZM37.1787 180.221C41.8541 180.221 45.3719 178.841 47.3858 175.82L45.7217 174.711C44.2199 176.964 41.4877 178.221 37.1787 178.221L37.1787 180.221ZM47.3786 175.831C48.3925 174.351 49.105 172.319 49.5695 169.808C50.0359 167.287 50.2637 164.219 50.2637 160.617L48.2637 160.617C48.2637 164.145 48.0398 167.082 47.6029 169.444C47.164 171.816 46.5216 173.543 45.7288 174.7L47.3786 175.831ZM50.2637 160.617L50.2637 149.924L48.2637 149.924L48.2637 160.617L50.2637 160.617ZM49.2637 148.924L25.8994 148.924L25.8994 150.924L49.2637 150.924L49.2637 148.924ZM17.6231 318.088L16.9032 318.782L16.9095 318.789L17.6231 318.088ZM5.39161 299.338L4.46401 299.712L4.46627 299.717L5.39161 299.338ZM5.3916 255.393L4.46717 255.011L4.46402 255.019L5.3916 255.393ZM17.623 236.936L18.3335 237.639L18.3428 237.63L17.623 236.936ZM35.7871 224.338L35.402 223.415L35.3964 223.417L35.7871 224.338ZM79 224.338L79.3907 223.417L79.3875 223.416L79 224.338ZM97.1641 236.936L96.4443 237.63L96.4537 237.639L97.1641 236.936ZM109.322 255.393L108.396 255.768L108.397 255.772L109.322 255.393ZM109.322 299.411L108.397 299.032L108.394 299.04L109.322 299.411ZM79.0732 330.393L78.6882 329.47L78.6825 329.472L79.0732 330.393ZM34.835 297.507L35.5012 296.761L35.4978 296.758L34.835 297.507ZM79.8789 257.297L80.5421 256.548L80.5418 256.548L79.8789 257.297ZM57.3936 333.714C49.8043 333.714 42.7102 332.322 36.1013 329.544L35.3264 331.388C42.1941 334.274 49.5532 335.714 57.3936 335.714L57.3936 333.714ZM36.1013 329.544C29.4901 326.765 23.5696 322.716 18.3366 317.387L16.9095 318.789C22.321 324.299 28.461 328.502 35.3264 331.388L36.1013 329.544ZM18.3429 317.394C13.1573 312.016 9.14986 305.873 6.31694 298.959L4.46627 299.717C7.39507 306.865 11.542 313.222 16.9032 318.782L18.3429 317.394ZM6.31919 298.964C3.53492 292.052 2.14356 284.879 2.14356 277.438L0.143558 277.438C0.143558 285.135 1.58423 292.562 4.46402 299.711L6.31919 298.964ZM2.14356 277.438C2.14356 269.899 3.53554 262.677 6.31919 255.766L4.46402 255.019C1.58361 262.17 0.143558 269.646 0.143558 277.438L2.14356 277.438ZM6.31601 255.774C9.14762 248.911 13.1524 242.868 18.3334 237.639L16.9127 236.232C11.5468 241.647 7.39731 247.909 4.4672 255.011L6.31601 255.774ZM18.3428 237.63C23.5755 232.205 29.5194 228.085 36.1778 225.258L35.3964 223.417C28.4806 226.353 22.3151 230.631 16.9033 236.241L18.3428 237.63ZM36.1722 225.261C42.8329 222.481 49.9037 221.09 57.3936 221.09L57.3936 219.09C49.649 219.09 42.3155 220.53 35.402 223.415L36.1722 225.261ZM57.3936 221.09C64.9331 221.09 72.0029 222.482 78.6125 225.26L79.3875 223.416C72.5206 220.53 65.186 219.09 57.3936 219.09L57.3936 221.09ZM78.6093 225.258C85.2677 228.085 91.2116 232.205 96.4443 237.63L97.8838 236.241C92.472 230.631 86.3065 226.353 79.3907 223.417L78.6093 225.258ZM96.4537 237.639C101.634 242.867 105.613 248.908 108.396 255.768L110.249 255.017C107.367 247.912 103.241 241.648 97.8744 236.232L96.4537 237.639ZM108.397 255.772C111.228 262.682 112.644 269.901 112.644 277.438L114.644 277.438C114.644 269.644 113.178 262.166 110.248 255.013L108.397 255.772ZM112.644 277.438C112.644 284.926 111.228 292.121 108.397 299.032L110.248 299.79C113.178 292.638 114.644 285.185 114.644 277.438L112.644 277.438ZM108.394 299.04C105.61 305.999 101.63 312.112 96.4505 317.387L97.8776 318.788C103.245 313.322 107.37 306.984 110.251 299.783L108.394 299.04ZM96.4505 317.387C91.2684 322.665 85.3491 326.69 78.6882 329.47L79.4583 331.315C86.3716 328.431 92.5129 324.253 97.8776 318.788L96.4505 317.387ZM78.6825 329.472C72.0239 332.298 64.9308 333.714 57.3936 333.714L57.3936 335.714C65.1884 335.714 72.5484 334.248 79.464 331.313L78.6825 329.472ZM24.8994 277.438C24.8994 285.824 27.9961 292.788 34.1721 298.256L35.4978 296.758C29.7598 291.678 26.8994 285.264 26.8994 277.438L24.8994 277.438ZM34.1687 298.253C40.3342 303.761 48.1017 306.49 57.3936 306.49L57.3936 304.49C48.5213 304.49 41.2498 301.897 35.5012 296.761L34.1687 298.253ZM57.3936 306.49C66.5934 306.49 74.3348 303.733 80.5455 298.179L79.2123 296.688C73.4113 301.876 66.1624 304.49 57.3936 304.49L57.3936 306.49ZM80.5455 298.179C86.7605 292.621 89.8877 285.686 89.8877 277.438L87.8877 277.438C87.8877 285.109 85.009 291.504 79.2123 296.688L80.5455 298.179ZM89.8877 277.438C89.8877 269.05 86.7646 262.063 80.5421 256.548L79.2157 258.045C85.0049 263.176 87.8877 269.616 87.8877 277.438L89.8877 277.438ZM80.5418 256.548C74.377 251.091 66.6356 248.387 57.3936 248.387L57.3936 250.387C66.2179 250.387 73.4667 252.956 79.2161 258.046L80.5418 256.548ZM57.3936 248.387C48.0123 248.387 40.2198 251.062 34.0993 256.475L35.4242 257.973C41.1201 252.936 48.4155 250.387 57.3936 250.387L57.3936 248.387ZM34.0993 256.475C27.9654 261.899 24.8994 268.915 24.8994 277.438L26.8994 277.438C26.8994 269.458 29.7416 262.998 35.4242 257.973L34.0993 256.475ZM111.227 352.438L112.227 352.438L112.227 351.438L111.227 351.438L111.227 352.438ZM111.227 381.589L111.227 382.589L112.227 382.589L112.227 381.589L111.227 381.589ZM42.5254 382.175L42.4102 381.181L42.4086 381.182L42.5254 382.175ZM34.1758 384.152L34.5557 385.077L34.5575 385.077L34.1758 384.152ZM27.877 390.012L26.9919 389.546L26.9857 389.558L27.877 390.012ZM27.877 410.3L26.9889 410.76L26.992 410.766L27.877 410.3ZM34.1758 416.232L33.7818 417.152L33.794 417.157L34.1758 416.232ZM42.5254 418.21L42.4086 419.203L42.4102 419.203L42.5254 418.21ZM111.227 418.796L112.227 418.796L112.227 417.796L111.227 417.796L111.227 418.796ZM111.227 447.873L111.227 448.873L112.227 448.873L112.227 447.873L111.227 447.873ZM28.4629 445.749L28.2164 446.718L28.2184 446.719L28.4629 445.749ZM14.1807 438.571L14.8292 437.81L14.8251 437.807L14.1807 438.571ZM4.36622 423.483L3.41823 423.802L3.42046 423.808L4.36622 423.483ZM4.36622 376.828L3.42119 376.501L3.41826 376.51L4.36622 376.828ZM14.1807 361.74L13.5377 360.974L13.5313 360.98L14.1807 361.74ZM28.4629 354.563L28.2184 353.593L28.2084 353.595L28.4629 354.563ZM110.227 352.438L110.227 381.589L112.227 381.589L112.227 352.438L110.227 352.438ZM111.227 380.589L59.0781 380.589L59.0781 382.589L111.227 382.589L111.227 380.589ZM59.0781 380.589C51.4092 380.589 45.8415 380.784 42.4102 381.181L42.6406 383.168C45.9476 382.785 51.415 382.589 59.0781 382.589L59.0781 380.589ZM42.4086 381.182C39.0287 381.579 36.1499 382.255 33.794 383.228L34.5575 385.077C36.6939 384.194 39.3815 383.552 42.6422 383.168L42.4086 381.182ZM33.7959 383.227C30.83 384.445 28.5586 386.57 26.992 389.546L28.7619 390.477C30.125 387.888 32.0529 386.105 34.5557 385.077L33.7959 383.227ZM26.9857 389.558C25.4809 392.516 24.7529 396.074 24.7529 400.192L26.7529 400.192C26.7529 396.303 27.441 393.074 28.7682 390.465L26.9857 389.558ZM24.7529 400.192C24.7529 404.31 25.4806 407.847 26.989 410.76L28.765 409.84C27.4413 407.284 26.7529 404.083 26.7529 400.192L24.7529 400.192ZM26.992 410.766C28.5571 413.739 30.824 415.884 33.7819 417.152L34.5697 415.313C32.0588 414.237 30.1265 412.427 28.7619 409.834L26.992 410.766ZM33.794 417.157C36.1499 418.13 39.0287 418.805 42.4086 419.203L42.6422 417.217C39.3815 416.833 36.6939 416.191 34.5575 415.308L33.794 417.157ZM42.4102 419.203C45.8415 419.601 51.4092 419.796 59.0781 419.796L59.0781 417.796C51.415 417.796 45.9476 417.6 42.6406 417.217L42.4102 419.203ZM59.0781 419.796L66.4023 419.796L66.4023 417.796L59.0781 417.796L59.0781 419.796ZM66.4023 419.796L111.227 419.796L111.227 417.796L66.4023 417.796L66.4023 419.796ZM110.227 418.796L110.227 447.873L112.227 447.873L112.227 418.796L110.227 418.796ZM111.227 446.873L54.5371 446.873L54.5371 448.873L111.227 448.873L111.227 446.873ZM54.5371 446.873C42.7856 446.873 34.1971 446.164 28.7074 444.779L28.2184 446.719C33.9592 448.166 42.7535 448.873 54.5371 448.873L54.5371 446.873ZM28.7094 444.78C23.2753 443.398 18.6561 441.07 14.8291 437.81L13.5322 439.333C17.6154 442.811 22.5177 445.268 28.2164 446.718L28.7094 444.78ZM14.8251 437.807C10.642 434.282 7.46169 429.417 5.31197 423.159L3.42046 423.808C5.66527 430.343 9.02788 435.537 13.5363 439.336L14.8251 437.807ZM5.31417 423.165C3.20997 416.9 2.14356 409.251 2.14356 400.192L0.143559 400.192C0.14356 409.396 1.22559 417.274 3.41826 423.802L5.31417 423.165ZM2.14356 400.192C2.14356 391.085 3.21012 383.411 5.31417 377.147L3.41826 376.51C1.22544 383.038 0.143559 390.941 0.143559 400.192L2.14356 400.192ZM5.31121 377.155C7.46056 370.946 10.6418 366.077 14.8301 362.501L13.5313 360.98C9.02814 364.825 5.6664 370.015 3.42122 376.501L5.31121 377.155ZM14.8236 362.506C18.6533 359.291 23.2772 356.961 28.7174 355.53L28.2084 353.595C22.5157 355.094 17.6182 357.549 13.5377 360.974L14.8236 362.506ZM28.7074 355.532C34.1971 354.148 42.7856 353.438 54.5371 353.438L54.5371 351.438C42.7535 351.438 33.9592 352.145 28.2184 353.593L28.7074 355.532ZM54.5371 353.438L65.6699 353.438L65.6699 351.438L54.5371 351.438L54.5371 353.438ZM65.6699 353.438L111.227 353.438L111.227 351.438L65.6699 351.438L65.6699 353.438ZM4.00001 485.593L4.00001 484.593L3.00001 484.593L3.00001 485.593L4.00001 485.593ZM85.8848 485.593L85.8848 486.593L86.8848 486.593L86.8848 485.593L85.8848 485.593ZM85.8848 461.569L85.8848 460.569L84.8848 460.569L84.8848 461.569L85.8848 461.569ZM111.227 461.569L112.227 461.569L112.227 460.569L111.227 460.569L111.227 461.569ZM111.227 538.84L111.227 539.84L112.227 539.84L112.227 538.84L111.227 538.84ZM85.8848 538.84L84.8848 538.84L84.8848 539.84L85.8848 539.84L85.8848 538.84ZM85.8848 514.816L86.8848 514.816L86.8848 513.816L85.8848 513.816L85.8848 514.816ZM4.00001 514.816L3.00001 514.816L3.00001 515.816L4.00001 515.816L4.00001 514.816ZM4.00001 486.593L85.8848 486.593L85.8848 484.593L4.00001 484.593L4.00001 486.593ZM86.8848 485.593L86.8848 461.569L84.8848 461.569L84.8848 485.593L86.8848 485.593ZM85.8848 462.569L111.227 462.569L111.227 460.569L85.8848 460.569L85.8848 462.569ZM110.227 461.569L110.227 538.84L112.227 538.84L112.227 461.569L110.227 461.569ZM111.227 537.84L85.8848 537.84L85.8848 539.84L111.227 539.84L111.227 537.84ZM86.8848 538.84L86.8848 514.816L84.8848 514.816L84.8848 538.84L86.8848 538.84ZM85.8848 513.816L4.00001 513.816L4.00001 515.816L85.8848 515.816L85.8848 513.816ZM5.00001 514.816L5.00001 485.593L3.00001 485.593L3.00001 514.816L5.00001 514.816Z" fill="url(#paint0_linear)" fill-opacity="0.15"/>
<defs>
<linearGradient id="paint0_linear" x1="226.99" y1="72.3713" x2="-210.66" y2="276.635" gradientUnits="userSpaceOnUse">
<stop stop-color="#F2643F"/>
<stop offset="1" stop-color="#C3188A"/>
</linearGradient>
</defs>
</svg>
