<svg width="55" height="54" viewBox="0 0 55 54" fill="none" xmlns="http://www.w3.org/2000/svg">
<g opacity="0.8">
<path d="M54.1821 35.1501V0L29.9595 9.65261H20.6712C16.3912 9.65261 12.9309 13.113 12.9309 17.3929C12.9309 21.6728 16.3912 25.1332 20.6712 25.1332H22.4924V28.8668H22.3103C16.027 29.4132 12.4755 33.1467 11.1096 34.6037C10.8364 34.8769 10.6543 35.059 10.5632 35.1501H10.4722H0V50.8128H10.8364C15.1164 52.9073 19.9427 54 24.6779 54H30.3238C32.8735 54 34.8769 51.9966 34.8769 49.4469C34.8769 48.2631 34.4216 47.1703 33.6931 46.3508L33.511 46.1686L33.6931 45.9865C34.4216 45.167 34.8769 44.0742 34.8769 42.8904C34.8769 41.7976 34.5126 40.7049 33.6931 39.8853L33.511 39.7032L33.6931 39.5211C34.4216 38.7015 34.8769 37.6088 34.8769 36.516C34.8769 34.6037 33.6931 32.8735 31.8718 32.2361L31.6897 32.145V25.7707L54.1821 35.1501ZM31.6897 11.9292L51.4503 4.09781V31.0523L31.6897 22.8567V11.9292ZM9.74368 48.0809H2.73187V37.973H9.65261V48.0809H9.74368ZM20.6712 22.4014C17.9393 22.4014 15.6627 20.1248 15.6627 17.3929C15.6627 14.661 17.9393 12.3845 20.6712 12.3845H28.8668V22.4014H20.6712ZM28.9578 25.1332V31.9629H25.3153V25.1332H28.9578ZM32.145 36.6071C32.145 37.5177 31.4165 38.3373 30.5059 38.4283V41.1602C31.4165 41.2513 32.145 42.0708 32.145 42.9815C32.145 43.8921 31.4165 44.7116 30.5059 44.8027V47.5346C31.4165 47.6256 32.145 48.5363 32.145 49.4469C32.145 50.4486 31.3255 51.2681 30.3238 51.2681H24.6779C20.5801 51.2681 16.3912 50.3575 12.6577 48.6273L12.5666 48.5363V37.1535L12.6577 37.0624C12.7487 36.9713 12.9309 36.7892 13.204 36.516C14.3879 35.2411 17.3019 32.2361 22.4014 31.5987H22.6745V34.7858H30.4148C30.8702 34.7858 31.3255 34.968 31.6897 35.3322C31.9629 35.6054 32.145 36.0607 32.145 36.6071Z" fill="url(#paint0_linear)"/>
</g>
<defs>
<linearGradient id="paint0_linear" x1="6.97344" y1="-13.4375" x2="70.5589" y2="43.6248" gradientUnits="userSpaceOnUse">
<stop stop-color="#EC008C"/>
<stop offset="1" stop-color="#2B328C"/>
</linearGradient>
</defs>
</svg>
