<svg width="34" height="56" viewBox="0 0 34 56" fill="none" xmlns="http://www.w3.org/2000/svg">
<g opacity="0.8">
<path d="M16.9688 9.65771C7.58182 9.65771 0 17.2395 0 26.6265C0 32.4032 2.88831 37.7285 7.67208 40.8876L7.76234 40.9778V46.4837C7.76234 51.5382 11.824 55.5999 16.8786 55.5999C21.9331 55.5999 26.0851 51.5382 26.0851 46.4837V40.9778L26.1753 40.8876C30.9591 37.7285 33.8474 32.4032 33.8474 26.6265C33.9377 17.2395 26.3558 9.65771 16.9688 9.65771ZM23.1968 46.3934C23.1968 49.8233 20.3987 52.7116 16.9688 52.7116C13.539 52.7116 10.7409 49.9136 10.7409 46.3934V44.7688H23.287V46.3934H23.1968ZM23.9188 38.8116C23.4675 39.0824 23.1968 39.5337 23.1968 40.0752V41.8804H18.413V32.9447H18.5935C20.6695 32.2227 22.1136 30.4175 22.1136 28.2512H19.2253C19.1351 29.4246 18.1422 30.3272 16.9688 30.3272C15.7955 30.3272 14.8026 29.4246 14.7123 28.2512H11.824C11.9143 30.4175 13.2682 32.3129 15.3442 32.9447H15.5247V41.8804H10.7409V40.0752C10.7409 39.5337 10.4701 39.0824 10.0188 38.8116C5.68636 36.2843 2.97857 31.5908 2.97857 26.6265C2.97857 18.8642 9.29675 12.546 17.0591 12.546C24.8214 12.546 31.1396 18.8642 31.1396 26.6265C31.0494 31.5908 28.3416 36.2843 23.9188 38.8116Z" fill="url(#paint0_linear)"/>
<path d="M18.413 0H15.4344V5.77662H18.413V0Z" fill="url(#paint1_linear)"/>
<path d="M26.085 1.80524L24.0993 7.22082L21.3013 6.22796L23.287 0.812378L26.085 1.80524Z" fill="url(#paint2_linear)"/>
<path d="M12.6363 6.22801L9.83825 7.22087L7.85254 1.80528L10.6506 0.722168L12.6363 6.22801Z" fill="url(#paint3_linear)"/>
</g>
<defs>
<linearGradient id="paint0_linear" x1="4.35639" y1="-1.77466" x2="54.3579" y2="31.1739" gradientUnits="userSpaceOnUse">
<stop stop-color="#EC008C"/>
<stop offset="1" stop-color="#2B328C"/>
</linearGradient>
<linearGradient id="paint1_linear" x1="15.8178" y1="-1.43747" x2="21.0216" y2="0.962399" gradientUnits="userSpaceOnUse">
<stop stop-color="#EC008C"/>
<stop offset="1" stop-color="#2B328C"/>
</linearGradient>
<linearGradient id="paint2_linear" x1="21.917" y1="-0.782315" x2="28.9273" y2="3.89811" gradientUnits="userSpaceOnUse">
<stop stop-color="#EC008C"/>
<stop offset="1" stop-color="#2B328C"/>
</linearGradient>
<linearGradient id="paint3_linear" x1="8.46823" y1="-0.894985" x2="15.5387" y2="3.76003" gradientUnits="userSpaceOnUse">
<stop stop-color="#EC008C"/>
<stop offset="1" stop-color="#2B328C"/>
</linearGradient>
</defs>
</svg>
