<svg width="54" height="54" viewBox="0 0 54 54" fill="none" xmlns="http://www.w3.org/2000/svg">
<path d="M0 0V54H54V0H0ZM51.2773 51.2773H2.72269V12.3429H51.2773V51.2773ZM51.2773 9.52941H47.6471V6.35294H44.9244V9.52941H41.2941V6.35294H38.5714V9.52941H34.9412V6.35294H32.2185V9.52941H2.81345V2.72269H51.2773V9.52941Z" fill="url(#paint0_linear)"/>
<path d="M38.4807 15.9731V19.1496H15.5194V15.9731H6.44373V25.0487H15.5194V21.8722H24.3227L15.7916 33.2168L19.2404 40.1143V47.5563H34.9412V39.9327L38.2992 33.126L29.7681 21.7815H38.4807V24.958H47.5563V15.8823H38.4807V15.9731ZM12.7967 22.326H9.16642V18.6958H12.7967V22.326ZM34.8505 33.5798L32.1278 39.479V44.9243H21.8723V39.479L18.9681 33.5798L25.5933 24.6857V32.1277H23.9597V34.8504H29.8589V32.1277H28.2252V24.6857L34.8505 33.5798ZM44.8336 22.326H41.2034V18.6958H44.8336V22.326Z" fill="url(#paint1_linear)"/>
<defs>
<linearGradient id="paint0_linear" x1="6.95" y1="-13.4375" x2="70.512" y2="43.4121" gradientUnits="userSpaceOnUse">
<stop stop-color="#EC008C"/>
<stop offset="1" stop-color="#2B328C"/>
</linearGradient>
<linearGradient id="paint1_linear" x1="11.7351" y1="8.0005" x2="48.8363" y2="51.0721" gradientUnits="userSpaceOnUse">
<stop stop-color="#EC008C"/>
<stop offset="1" stop-color="#2B328C"/>
</linearGradient>
</defs>
</svg>
