<svg width="21" height="15" viewBox="0 0 21 15" fill="none" xmlns="http://www.w3.org/2000/svg">
<path d="M18.625 0H2.375C1.32031 0 0.5 0.859375 0.5 1.875V13.125C0.5 14.1797 1.32031 15 2.375 15H18.625C19.6406 15 20.5 14.1797 20.5 13.125V1.875C20.5 0.859375 19.6406 0 18.625 0ZM18.625 1.875V3.47656C17.7266 4.21875 16.3203 5.3125 13.3516 7.65625C12.6875 8.16406 11.3984 9.41406 10.5 9.375C9.5625 9.41406 8.27344 8.16406 7.60938 7.65625C4.64062 5.3125 3.23438 4.21875 2.375 3.47656V1.875H18.625ZM2.375 13.125V5.89844C3.23438 6.60156 4.52344 7.61719 6.4375 9.14062C7.29688 9.80469 8.82031 11.2891 10.5 11.25C12.1406 11.2891 13.625 9.80469 14.5234 9.14062C16.4375 7.61719 17.7266 6.60156 18.625 5.89844V13.125H2.375Z" fill="#6E6E81"/>
</svg>
