<svg width="74" height="55" viewBox="0 0 74 55" fill="none" xmlns="http://www.w3.org/2000/svg">
<path opacity="0.15" d="M38.993 16.5C38.993 11.9167 40.6105 8.02083 43.8454 4.8125C46.9649 1.60417 50.8353 2.02512e-06 55.4567 1.62111e-06C61.0023 1.13629e-06 65.5082 1.89063 68.9742 5.67188C72.3247 9.56771 74 14.6667 74 20.9688C74 27.1562 73.249 32.4271 71.7471 36.7813C70.1296 41.1354 67.8767 44.6302 64.9883 47.2656C62.0999 49.9011 58.5761 51.849 54.4169 53.1094C50.1421 54.3698 45.2896 55 39.8595 55L39.8595 44.6875C43.3255 44.6875 46.2717 44.2865 48.6979 43.4844C51.1241 42.6823 53.0882 41.651 54.5902 40.3906C56.2076 39.1302 57.4208 37.6979 58.2295 36.0938C59.0383 34.6042 59.5582 33.0573 59.7892 31.4531C59.5582 31.6823 59.0382 31.9115 58.2295 32.1406C57.3052 32.4844 56.3809 32.6563 55.4567 32.6563C50.3731 32.6563 46.3872 31.0521 43.4988 27.8438C40.4949 24.75 38.993 20.9687 38.993 16.5ZM-3.36578e-06 16.5C-3.76646e-06 11.9167 1.61747 8.02083 4.85245 4.8125C7.97189 1.60417 11.8423 5.434e-06 16.4637 5.02998e-06C22.0094 4.54517e-06 26.5152 1.89063 29.9813 5.67188C33.3318 9.56771 35.007 14.6667 35.007 20.9688C35.007 27.1563 34.256 32.4271 32.7541 36.7813C31.2521 41.1354 29.057 44.6302 26.1686 47.2656C23.1647 49.9011 19.5831 51.849 15.4239 53.1094C11.1491 54.3698 6.29664 55 0.866508 55L0.866508 44.6875C4.33255 44.6875 7.27869 44.2865 9.70491 43.4844C12.1311 42.6823 14.153 41.651 15.7705 40.3906C17.388 39.1302 18.6011 37.6979 19.4098 36.0938C20.103 34.6042 20.5652 33.0573 20.7962 31.4531C20.5652 31.6823 20.0453 31.9115 19.2365 32.1406C18.3123 32.4844 17.388 32.6563 16.4637 32.6563C11.3802 32.6563 7.39422 31.0521 4.50585 27.8438C1.50194 24.75 -2.97511e-06 20.9688 -3.36578e-06 16.5Z" fill="url(#paint0_linear)"/>
<defs>
<linearGradient id="paint0_linear" x1="64.4759" y1="68.6863" x2="0.433765" y2="-8.37995" gradientUnits="userSpaceOnUse">
<stop stop-color="#F2643F"/>
<stop offset="1" stop-color="#C3188A"/>
</linearGradient>
</defs>
</svg>
