<svg width="21" height="21" viewBox="0 0 21 21" fill="none" xmlns="http://www.w3.org/2000/svg">
<path d="M19.0938 1.39844L15.4219 0.578125C14.5625 0.382812 13.7031 0.8125 13.3906 1.59375L11.6719 5.57812C11.3594 6.28125 11.5547 7.14062 12.1797 7.64844L13.7422 8.9375C12.6484 10.9688 10.9297 12.6484 8.89844 13.7812L7.60938 12.2188C7.10156 11.5938 6.24219 11.3984 5.53906 11.7109L1.55469 13.3906C0.773438 13.7422 0.34375 14.6016 0.539062 15.4609L1.35938 19.1328C1.55469 19.9531 2.29688 20.5 3.11719 20.5C12.6875 20.5 20.5 12.7656 20.5 3.15625C20.5 2.33594 19.9141 1.59375 19.0938 1.39844ZM3.19531 18.625L2.375 15.1094L6.20312 13.4688L8.39062 16.125C12.2578 14.2891 14.25 12.2969 16.0859 8.42969L13.4297 6.24219L15.0703 2.41406L18.625 3.23438C18.5859 11.7109 11.6719 18.5859 3.19531 18.625Z" fill="#6E6E81"/>
</svg>
