<svg width="52" height="54" viewBox="0 0 52 54" fill="none" xmlns="http://www.w3.org/2000/svg">
<g opacity="0.8">
<path d="M34.7597 13.1596C34.5782 12.615 34.1244 12.3428 33.6706 12.252L28.8605 11.526L26.7731 7.16965C26.5009 6.71587 26.0471 6.4436 25.5025 6.4436C24.958 6.4436 24.5042 6.71587 24.3227 7.16965L22.1446 11.526L17.3345 12.252C16.7899 12.3428 16.4269 12.7058 16.2454 13.1596C16.0639 13.6134 16.2454 14.1579 16.6084 14.5209L20.0572 17.8789L19.2404 22.689C19.1496 23.2335 19.3311 23.6873 19.7849 24.0503C20.2387 24.3226 20.7832 24.4134 21.237 24.1411L25.5025 21.8722L29.7681 24.1411C30.2219 24.4134 30.7664 24.3226 31.2202 24.0503C31.674 23.7781 31.8555 23.2335 31.7647 22.689L30.9479 17.9697L34.3967 14.6117C34.7597 14.1579 34.9412 13.6134 34.7597 13.1596ZM28.4975 16.4268C28.2252 16.7898 28.0437 17.2436 28.1345 17.6066L28.5883 20.3293L26.1378 19.0587C25.7748 18.8772 25.2303 18.8772 24.8673 19.0587L22.4168 20.3293L22.8706 17.6066C22.9614 17.1528 22.7799 16.6991 22.5076 16.4268L20.5109 14.5209L23.9597 13.9764L25.5025 10.7999L27.0454 13.9764L30.4941 14.5209L28.4975 16.4268Z" fill="url(#paint0_linear)"/>
<path d="M33.5799 35.1227L36.3025 31.1294C36.5748 30.6756 36.5748 30.2218 36.3933 29.768C36.121 29.3143 35.6673 29.042 35.2135 29.042H15.9731C15.4286 29.042 14.9748 29.3143 14.7933 29.768C14.521 30.2218 14.6118 30.7664 14.8841 31.1294L17.6067 35.1227L14.8841 39.1159C14.6118 39.5697 14.6118 40.0235 14.7933 40.4773C15.0656 40.9311 15.5194 41.2033 15.9731 41.2033H35.1227C35.6673 41.2033 36.121 40.9311 36.3025 40.4773C36.5748 40.0235 36.4841 39.479 36.2118 39.1159L33.5799 35.1227ZM30.2219 35.1227L32.4908 38.5714H18.5143L20.7832 35.1227L18.5143 31.6739H32.5815L30.2219 35.1227Z" fill="url(#paint1_linear)"/>
<path d="M33.3075 44.9243H17.7882V47.647H33.3075V44.9243Z" fill="url(#paint2_linear)"/>
<path d="M51.005 7.53277L42.837 4.53782V0H8.16807V4.53782L0 7.53277L7.07899 26.9546L0 46.4672L8.16807 49.4622V54H42.837V49.4622L51.005 46.4672L43.9261 27.0454L51.005 7.53277ZM3.44874 9.16639L8.16807 7.44202V22.0538L3.44874 9.16639ZM8.16807 46.558L3.44874 44.8336L8.16807 31.8555V46.558ZM40.1143 51.2773H10.8908V2.72269H40.1143V51.2773ZM42.837 7.44202L47.5563 9.16639L42.837 22.0538V7.44202ZM47.5563 44.8336L42.837 46.558V31.9462L47.5563 44.8336Z" fill="url(#paint3_linear)"/>
</g>
<defs>
<linearGradient id="paint0_linear" x1="18.5754" y1="1.99881" x2="39.6823" y2="21.7168" gradientUnits="userSpaceOnUse">
<stop stop-color="#EC008C"/>
<stop offset="1" stop-color="#2B328C"/>
</linearGradient>
<linearGradient id="paint1_linear" x1="17.4463" y1="26.0157" x2="30.3585" y2="46.8036" gradientUnits="userSpaceOnUse">
<stop stop-color="#EC008C"/>
<stop offset="1" stop-color="#2B328C"/>
</linearGradient>
<linearGradient id="paint2_linear" x1="19.7856" y1="44.2468" x2="21.0038" y2="50.4574" gradientUnits="userSpaceOnUse">
<stop stop-color="#EC008C"/>
<stop offset="1" stop-color="#2B328C"/>
</linearGradient>
<linearGradient id="paint3_linear" x1="6.56454" y1="-13.4375" x2="69.6237" y2="39.8343" gradientUnits="userSpaceOnUse">
<stop stop-color="#EC008C"/>
<stop offset="1" stop-color="#2B328C"/>
</linearGradient>
</defs>
</svg>
