<svg width="20" height="20" viewBox="0 0 20 20" fill="none" xmlns="http://www.w3.org/2000/svg">
<path d="M9.59876 0.55814L8.75483 1.35988C8.54385 1.57086 8.54385 1.90843 8.75483 2.07722L15.2953 8.61769H0.906262C0.610885 8.61769 0.399902 8.87087 0.399902 9.12405V10.3056C0.399902 10.6009 0.610885 10.8119 0.906262 10.8119H15.2953L8.75483 17.3946C8.54385 17.5634 8.54385 17.9009 8.75483 18.1119L9.59876 18.9137C9.76755 19.1246 10.1051 19.1246 10.3161 18.9137L19.1352 10.0946C19.3462 9.88359 19.3462 9.58821 19.1352 9.37723L10.3161 0.55814C10.1051 0.347157 9.76755 0.347157 9.59876 0.55814Z" fill="#EC008C"/>
</svg>
