<svg width="54" height="54" viewBox="0 0 54 54" fill="none" xmlns="http://www.w3.org/2000/svg">
<g opacity="0.8">
<path d="M0 0V54H54V0H0ZM51.2773 51.2773H2.72269V14.2487H51.2773V51.2773ZM51.2773 11.5261H2.72269V2.72269H51.2773V11.5261Z" fill="url(#paint0_linear)"/>
<path d="M12.5244 21.2368C9.98321 21.2368 7.89581 23.3242 7.89581 25.8654C7.89581 28.4066 9.98321 30.494 12.5244 30.494C15.0656 30.494 17.153 28.4066 17.153 25.8654C17.153 23.3242 15.0656 21.2368 12.5244 21.2368ZM12.5244 27.7713C11.5261 27.7713 10.6185 26.9545 10.6185 25.8654C10.6185 24.8671 11.4353 23.9595 12.5244 23.9595C13.6135 23.9595 14.4303 24.7763 14.4303 25.8654C14.4303 26.8637 13.5227 27.7713 12.5244 27.7713Z" fill="url(#paint1_linear)"/>
<path d="M23.6874 35.6672C21.1462 35.6672 19.0588 37.7546 19.0588 40.2958C19.0588 42.837 21.1462 44.9244 23.6874 44.9244C26.2286 44.9244 28.316 42.837 28.316 40.2958C28.316 37.7546 26.2286 35.6672 23.6874 35.6672ZM23.6874 42.1109C22.6891 42.1109 21.7815 41.2941 21.7815 40.2051C21.7815 39.116 22.5983 38.2992 23.6874 38.2992C24.7765 38.2992 25.5933 39.116 25.5933 40.2051C25.5933 41.2941 24.7765 42.1109 23.6874 42.1109Z" fill="url(#paint2_linear)"/>
<path d="M27.4084 22.9612L10.9815 44.8335L8.80334 43.1091L25.2302 21.3276L27.4084 22.9612Z" fill="url(#paint3_linear)"/>
<path d="M36.6655 5.62671H33.8521V8.3494H36.6655V5.62671Z" fill="url(#paint4_linear)"/>
<path d="M42.3831 5.62671H39.5697V8.3494H42.3831V5.62671Z" fill="url(#paint5_linear)"/>
<path d="M48.1009 5.62671H45.2874V8.3494H48.1009V5.62671Z" fill="url(#paint6_linear)"/>
<path d="M45.7411 23.2336H33.8521V25.9563H45.7411V23.2336Z" fill="url(#paint7_linear)"/>
<path d="M45.7411 31.4019H33.8521V34.1245H45.7411V31.4019Z" fill="url(#paint8_linear)"/>
<path d="M45.7411 39.5698H33.8521V42.2925H45.7411V39.5698Z" fill="url(#paint9_linear)"/>
</g>
<defs>
<linearGradient id="paint0_linear" x1="6.95" y1="-13.4375" x2="70.512" y2="43.4121" gradientUnits="userSpaceOnUse">
<stop stop-color="#EC008C"/>
<stop offset="1" stop-color="#2B328C"/>
</linearGradient>
<linearGradient id="paint1_linear" x1="9.08724" y1="18.9332" x2="19.9836" y2="28.6789" gradientUnits="userSpaceOnUse">
<stop stop-color="#EC008C"/>
<stop offset="1" stop-color="#2B328C"/>
</linearGradient>
<linearGradient id="paint2_linear" x1="20.2503" y1="33.3637" x2="31.1466" y2="43.1093" gradientUnits="userSpaceOnUse">
<stop stop-color="#EC008C"/>
<stop offset="1" stop-color="#2B328C"/>
</linearGradient>
<linearGradient id="paint3_linear" x1="11.1979" y1="15.4784" x2="37.4563" y2="34.0672" gradientUnits="userSpaceOnUse">
<stop stop-color="#EC008C"/>
<stop offset="1" stop-color="#2B328C"/>
</linearGradient>
<linearGradient id="paint4_linear" x1="34.2142" y1="4.94919" x2="37.4289" y2="7.92033" gradientUnits="userSpaceOnUse">
<stop stop-color="#EC008C"/>
<stop offset="1" stop-color="#2B328C"/>
</linearGradient>
<linearGradient id="paint5_linear" x1="39.9318" y1="4.94919" x2="43.1466" y2="7.92033" gradientUnits="userSpaceOnUse">
<stop stop-color="#EC008C"/>
<stop offset="1" stop-color="#2B328C"/>
</linearGradient>
<linearGradient id="paint6_linear" x1="45.6495" y1="4.94919" x2="48.8643" y2="7.92033" gradientUnits="userSpaceOnUse">
<stop stop-color="#EC008C"/>
<stop offset="1" stop-color="#2B328C"/>
</linearGradient>
<linearGradient id="paint7_linear" x1="35.3822" y1="22.5561" x2="36.932" y2="28.6089" gradientUnits="userSpaceOnUse">
<stop stop-color="#EC008C"/>
<stop offset="1" stop-color="#2B328C"/>
</linearGradient>
<linearGradient id="paint8_linear" x1="35.3822" y1="30.7243" x2="36.932" y2="36.7771" gradientUnits="userSpaceOnUse">
<stop stop-color="#EC008C"/>
<stop offset="1" stop-color="#2B328C"/>
</linearGradient>
<linearGradient id="paint9_linear" x1="35.3822" y1="38.8923" x2="36.932" y2="44.9451" gradientUnits="userSpaceOnUse">
<stop stop-color="#EC008C"/>
<stop offset="1" stop-color="#2B328C"/>
</linearGradient>
</defs>
</svg>
