<svg width="115" height="691" viewBox="0 0 115 691" fill="none" xmlns="http://www.w3.org/2000/svg">
<path d="M76.3564 675.813C81.2881 671.468 84.9746 667.195 87.416 662.996C89.8574 658.748 91.0781 654.524 91.0781 650.325C91.0781 646.419 90.0283 643.221 87.9287 640.73C85.8291 638.191 83.168 636.922 79.9453 636.922C76.3809 636.922 73.6465 638.021 71.7422 640.218C69.7891 642.366 67.7871 647.273 65.7363 654.939C62.9043 665.437 59.2178 672.859 54.6768 677.205C50.1357 681.551 43.9102 683.724 36 683.724C25.7461 683.724 17.3965 680.306 10.9512 673.47C4.45703 666.585 1.20996 657.674 1.20996 646.736C1.20996 640.828 2.01562 635.237 3.62695 629.964C5.18945 624.642 7.58203 619.612 10.8047 614.876L31.8252 624.031C28.9932 627.352 26.8691 630.77 25.4531 634.285C23.9883 637.752 23.2559 641.194 23.2559 644.612C23.2559 648.128 24.1103 650.984 25.8193 653.182C27.4795 655.379 29.6279 656.478 32.2646 656.478C34.9502 656.478 37.0986 655.525 38.71 653.621C40.3213 651.668 41.8594 647.933 43.3242 642.415L43.6904 641.097C46.9131 629.183 50.4531 621.346 54.3105 617.586C56.9473 615.047 60.1211 613.118 63.832 611.8C67.4941 610.481 71.5713 609.822 76.0635 609.822C87.4404 609.822 96.5957 613.558 103.529 621.028C110.414 628.499 113.856 638.46 113.856 650.911C113.856 658.382 112.587 665.193 110.048 671.346C107.509 677.449 103.529 683.333 98.1094 688.997L76.3564 675.813ZM111 593.416L3.77343 593.416L3.77343 527.718L27.2842 527.718L27.2842 564.925L45.8877 564.925L45.8877 529.842L68.8857 529.842L68.8857 564.925L86.9766 564.925L86.9766 527.718L111 527.718L111 593.416ZM111 508.309L3.77343 508.309L3.77343 477.767C3.77343 465.804 4.33495 457.479 5.458 452.791C6.53222 448.055 8.36327 443.978 10.9512 440.56C13.8808 436.702 17.6162 433.748 22.1572 431.697C26.6982 429.598 31.7031 428.548 37.1719 428.548C45.4726 428.548 52.2353 430.599 57.4599 434.7C62.6357 438.753 66.0781 444.686 67.7871 452.498L111 423.274L111 456.307L69.0322 480.916L111 480.916L111 508.309ZM54.457 480.916L54.457 475.496C54.457 469.197 53.3828 464.607 51.2344 461.727C49.0859 458.797 45.7168 457.332 41.1269 457.332C35.7558 457.332 31.9473 458.699 29.7012 461.434C27.4062 464.119 26.2588 468.66 26.2588 475.057L26.2588 480.916L54.457 480.916ZM111 381.38L3.77343 426.351L3.77342 395.296L63.7588 373.836C64.3935 373.641 65.9316 373.25 68.373 372.664C70.7656 372.029 74.0127 371.224 78.1142 370.247C74.8428 369.466 71.8887 368.733 69.2519 368.05C66.6152 367.366 64.7842 366.854 63.7588 366.512L3.77342 345.198L3.77342 314.144L111 359.114L111 381.38ZM111 304.695L3.77342 304.695L3.77342 275.179L111 275.179L111 304.695ZM7.94822 173.812L39.8818 173.812C35.4385 177.815 32.1914 181.819 30.1406 185.823C28.041 189.778 26.9912 194.026 26.9912 198.567C26.9912 206.966 29.872 213.777 35.6338 219.002C41.3467 224.178 48.8174 226.766 58.0459 226.766C66.6396 226.766 73.7685 224.129 79.4326 218.855C85.0967 213.533 87.9287 206.771 87.9287 198.567C87.9287 194.026 86.9033 189.778 84.8525 185.823C82.7529 181.819 79.457 177.815 74.9648 173.812L106.972 173.812C109.218 178.45 110.902 183.064 112.025 187.654C113.148 192.244 113.71 196.883 113.71 201.57C113.71 207.43 113.002 212.85 111.586 217.83C110.219 222.762 108.119 227.303 105.287 231.453C99.916 239.461 93.1533 245.564 84.999 249.764C76.8447 253.963 67.665 256.062 57.4599 256.062C49.2568 256.062 41.8105 254.744 35.1211 252.107C28.3828 249.422 22.2793 245.394 16.8105 240.022C11.5859 234.944 7.67967 229.231 5.09178 222.884C2.50389 216.487 1.20994 209.383 1.20994 201.57C1.20994 196.883 1.77146 192.244 2.89451 187.654C4.01756 183.064 5.70213 178.45 7.94822 173.812ZM111 157.332L3.77341 157.332L3.77341 91.6338L27.2842 91.6338L27.2842 128.841L45.8877 128.841L45.8877 93.7578L68.8857 93.7578L68.8857 128.841L86.9765 128.841L86.9765 91.6338L111 91.6338L111 157.332ZM76.3564 67.4639C81.2881 63.1182 84.9746 58.8457 87.416 54.6465C89.8574 50.3984 91.0781 46.1748 91.0781 41.9756C91.0781 38.0693 90.0283 34.8711 87.9287 32.3809C85.8291 29.8418 83.1679 28.5723 79.9453 28.5723C76.3808 28.5723 73.6465 29.6709 71.7422 31.8682C69.789 34.0166 67.7871 38.9238 65.7363 46.5898C62.9043 57.0879 59.2177 64.5098 54.6767 68.8555C50.1357 73.2012 43.9101 75.374 36 75.374C25.7461 75.374 17.3965 71.9561 10.9511 65.1201C4.457 58.2353 1.20993 49.3242 1.20993 38.3867C1.20993 32.4785 2.0156 26.8877 3.62692 21.6143C5.18942 16.292 7.582 11.2627 10.8047 6.52636L31.8252 15.6816C28.9931 19.0019 26.8691 22.4199 25.4531 25.9355C23.9883 29.4023 23.2558 32.8447 23.2558 36.2627C23.2558 39.7783 24.1103 42.6348 25.8193 44.832C27.4795 47.0293 29.6279 48.1279 32.2646 48.1279C34.9502 48.1279 37.0986 47.1758 38.7099 45.2715C40.3213 43.3184 41.8593 39.583 43.3242 34.0654L43.6904 32.7471C46.9131 20.833 50.4531 12.9961 54.3105 9.23632C56.9472 6.69726 60.1211 4.76855 63.832 3.45019C67.4941 2.13183 71.5713 1.47265 76.0634 1.47265C87.4404 1.47265 96.5957 5.208 103.529 12.6787C110.414 20.1494 113.856 30.1103 113.856 42.5615C113.856 50.0322 112.587 56.8437 110.048 62.9961C107.509 69.0996 103.529 74.9834 98.1093 80.6475L76.3564 67.4639Z" fill="white"/>
<path d="M76.3564 675.813L75.6953 675.063L74.674 675.963L75.8381 676.669L76.3564 675.813ZM87.416 662.996L88.2805 663.499L88.283 663.494L87.416 662.996ZM87.9287 640.73L87.158 641.368L87.1642 641.375L87.9287 640.73ZM71.7422 640.218L72.4821 640.89L72.4901 640.882L72.4979 640.873L71.7422 640.218ZM65.7363 654.939L66.7018 655.2L66.7024 655.198L65.7363 654.939ZM10.9512 673.47L11.6788 672.784L11.6786 672.784L10.9512 673.47ZM3.62695 629.964L4.58336 630.256L4.58646 630.246L3.62695 629.964ZM10.8047 614.876L11.204 613.959L10.4441 613.628L9.97792 614.313L10.8047 614.876ZM31.8252 624.031L32.586 624.68L33.4619 623.653L32.2245 623.114L31.8252 624.031ZM25.4531 634.285L26.3743 634.674L26.3776 634.667L26.3807 634.659L25.4531 634.285ZM25.8193 653.182L26.6173 652.579L26.6087 652.568L25.8193 653.182ZM38.71 653.621L39.4734 654.267L39.4813 654.257L38.71 653.621ZM43.3242 642.415L42.3606 642.147L42.3577 642.158L43.3242 642.415ZM43.6904 641.097L44.654 641.364L44.6557 641.358L43.6904 641.097ZM54.3105 617.586L53.6169 616.866L53.6126 616.87L54.3105 617.586ZM63.832 611.8L64.1668 612.742L64.1708 612.741L63.832 611.8ZM103.529 621.028L104.265 620.351L104.262 620.348L103.529 621.028ZM110.048 671.346L110.971 671.73L110.972 671.727L110.048 671.346ZM98.1094 688.997L97.5911 689.852L98.2772 690.268L98.8319 689.688L98.1094 688.997ZM77.0176 676.564C82.0033 672.17 85.7698 667.817 88.2805 663.499L86.5515 662.493C84.1794 666.573 80.5728 670.765 75.6953 675.063L77.0176 676.564ZM88.283 663.494C90.7969 659.12 92.0781 654.727 92.0781 650.325L90.0781 650.325C90.0781 654.322 88.9179 658.376 86.549 662.498L88.283 663.494ZM92.0781 650.325C92.0781 646.232 90.9738 642.791 88.6932 640.086L87.1642 641.375C89.0828 643.651 90.0781 646.606 90.0781 650.325L92.0781 650.325ZM88.6994 640.093C86.4147 637.33 83.4737 635.922 79.9453 635.922L79.9453 637.922C82.8622 637.922 85.2435 639.052 87.1581 641.368L88.6994 640.093ZM79.9453 635.922C76.1621 635.922 73.1229 637.098 70.9865 639.563L72.4979 640.873C74.17 638.943 76.5996 637.922 79.9453 637.922L79.9453 635.922ZM71.0022 639.545C69.9067 640.75 68.8649 642.644 67.85 645.132C66.8274 647.638 65.8018 650.825 64.7703 654.681L66.7024 655.198C67.7217 651.388 68.7224 648.288 69.7018 645.887C70.6888 643.468 71.6245 641.834 72.4821 640.89L71.0022 639.545ZM64.7708 654.679C61.9559 665.114 58.3302 672.325 53.9854 676.483L55.3682 677.928C60.1054 673.394 63.8527 665.761 66.7018 655.2L64.7708 654.679ZM53.9854 676.483C49.6754 680.607 43.7223 682.724 36 682.724L36 684.724C44.0981 684.724 50.5961 682.494 55.3682 677.928L53.9854 676.483ZM36 682.724C25.9935 682.724 17.9168 679.4 11.6788 672.784L10.2236 674.156C16.8762 681.212 25.4986 684.724 36 684.724L36 682.724ZM11.6786 672.784C5.38673 666.113 2.20996 657.461 2.20996 646.736L0.209959 646.736C0.209959 657.886 3.52733 667.057 10.2237 674.156L11.6786 672.784ZM2.20996 646.736C2.20996 640.92 3.00291 635.428 4.5833 630.256L2.6706 629.672C1.02834 635.046 0.209959 640.736 0.209959 646.736L2.20996 646.736ZM4.58646 630.246C6.11865 625.027 8.46546 620.092 11.6315 615.439L9.97792 614.313C6.69859 619.133 4.26025 624.257 2.66744 629.682L4.58646 630.246ZM10.4054 615.793L31.4259 624.948L32.2245 623.114L11.204 613.959L10.4054 615.793ZM31.0644 623.382C28.1727 626.773 25.9875 630.282 24.5255 633.912L26.3807 634.659C27.7508 631.257 29.8137 627.931 32.586 624.68L31.0644 623.382ZM24.532 633.896C23.0204 637.473 22.2559 641.048 22.2559 644.612L24.2559 644.612C24.2559 641.341 24.9562 638.031 26.3743 634.674L24.532 633.896ZM22.2559 644.612C22.2559 648.291 23.152 651.381 25.03 653.796L26.6087 652.568C25.0687 650.588 24.2559 647.965 24.2559 644.612L22.2559 644.612ZM25.0215 653.784C26.8608 656.219 29.2985 657.478 32.2646 657.478L32.2646 655.478C29.9574 655.478 28.0982 654.539 26.6172 652.579L25.0215 653.784ZM32.2646 657.478C35.2187 657.478 37.6561 656.415 39.4733 654.267L37.9466 652.975C36.5412 654.636 34.6816 655.478 32.2646 655.478L32.2646 657.478ZM39.4813 654.257C41.2432 652.122 42.824 648.196 44.2907 642.672L42.3577 642.158C40.8948 647.669 39.3994 651.214 37.9386 652.985L39.4813 654.257ZM44.2877 642.683L44.6539 641.364L42.7269 640.829L42.3607 642.147L44.2877 642.683ZM44.6557 641.358C46.2586 635.432 47.9329 630.549 49.6738 626.695C51.4194 622.831 53.2067 620.058 55.0085 618.302L53.6126 616.87C51.557 618.873 49.6456 621.899 47.8511 625.872C46.0519 629.855 44.3449 634.847 42.7251 640.836L44.6557 641.358ZM55.0042 618.306C57.5308 615.873 60.5796 614.017 64.1668 612.742L63.4973 610.858C59.6626 612.22 56.3637 614.221 53.6169 616.866L55.0042 618.306ZM64.1708 612.741C67.7089 611.467 71.6693 610.822 76.0635 610.822L76.0635 608.822C71.4733 608.822 67.2794 609.496 63.4933 610.859L64.1708 612.741ZM76.0635 610.822C87.1981 610.822 96.075 614.467 102.796 621.709L104.262 620.348C97.1164 612.649 87.6828 608.822 76.0635 608.822L76.0635 610.822ZM102.794 621.706C109.472 628.953 112.856 638.652 112.856 650.911L114.856 650.911C114.856 638.268 111.356 628.046 104.265 620.351L102.794 621.706ZM112.856 650.911C112.856 658.267 111.607 664.947 109.123 670.964L110.972 671.727C113.567 665.44 114.856 658.497 114.856 650.911L112.856 650.911ZM109.125 670.962C106.641 676.932 102.737 682.715 97.3869 688.306L98.8319 689.688C104.322 683.951 108.377 677.966 110.971 671.73L109.125 670.962ZM98.6277 688.142L76.8747 674.958L75.8381 676.669L97.5911 689.852L98.6277 688.142ZM111 593.416L111 594.416L112 594.416L112 593.416L111 593.416ZM3.77343 593.416L2.77343 593.416L2.77343 594.416L3.77343 594.416L3.77343 593.416ZM3.77343 527.718L3.77343 526.718L2.77343 526.718L2.77343 527.718L3.77343 527.718ZM27.2842 527.718L28.2842 527.718L28.2842 526.718L27.2842 526.718L27.2842 527.718ZM27.2842 564.925L26.2842 564.925L26.2842 565.925L27.2842 565.925L27.2842 564.925ZM45.8877 564.925L45.8877 565.925L46.8877 565.925L46.8877 564.925L45.8877 564.925ZM45.8877 529.842L45.8877 528.842L44.8877 528.842L44.8877 529.842L45.8877 529.842ZM68.8857 529.842L69.8857 529.842L69.8857 528.842L68.8857 528.842L68.8857 529.842ZM68.8857 564.925L67.8857 564.925L67.8857 565.925L68.8857 565.925L68.8857 564.925ZM86.9766 564.925L86.9766 565.925L87.9766 565.925L87.9766 564.925L86.9766 564.925ZM86.9766 527.718L86.9766 526.718L85.9766 526.718L85.9766 527.718L86.9766 527.718ZM111 527.718L112 527.718L112 526.718L111 526.718L111 527.718ZM111 592.416L3.77343 592.416L3.77343 594.416L111 594.416L111 592.416ZM4.77343 593.416L4.77343 527.718L2.77343 527.718L2.77343 593.416L4.77343 593.416ZM3.77343 528.718L27.2842 528.718L27.2842 526.718L3.77343 526.718L3.77343 528.718ZM26.2842 527.718L26.2842 564.925L28.2842 564.925L28.2842 527.718L26.2842 527.718ZM27.2842 565.925L45.8877 565.925L45.8877 563.925L27.2842 563.925L27.2842 565.925ZM46.8877 564.925L46.8877 529.842L44.8877 529.842L44.8877 564.925L46.8877 564.925ZM45.8877 530.842L68.8857 530.842L68.8857 528.842L45.8877 528.842L45.8877 530.842ZM67.8857 529.842L67.8857 564.925L69.8857 564.925L69.8857 529.842L67.8857 529.842ZM68.8857 565.925L86.9766 565.925L86.9766 563.925L68.8857 563.925L68.8857 565.925ZM87.9766 564.925L87.9766 527.718L85.9766 527.718L85.9766 564.925L87.9766 564.925ZM86.9766 528.718L111 528.718L111 526.718L86.9766 526.718L86.9766 528.718ZM110 527.718L110 593.416L112 593.416L112 527.718L110 527.718ZM111 508.309L111 509.309L112 509.309L112 508.309L111 508.309ZM3.77343 508.309L2.77343 508.309L2.77343 509.309L3.77343 509.309L3.77343 508.309ZM5.458 452.791L6.43055 453.024L6.43323 453.012L5.458 452.791ZM10.9512 440.56L10.1548 439.955L10.1539 439.956L10.9512 440.56ZM22.1572 431.697L22.5688 432.609L22.5769 432.605L22.1572 431.697ZM57.4599 434.7L56.8424 435.487L56.8434 435.488L57.4599 434.7ZM67.7871 452.498L66.8102 452.712L67.1254 454.153L68.3473 453.326L67.7871 452.498ZM111 423.274L112 423.274L112 421.391L110.44 422.446L111 423.274ZM111 456.307L111.506 457.169L112 456.879L112 456.307L111 456.307ZM69.0322 480.916L68.5264 480.053L65.3499 481.916L69.0322 481.916L69.0322 480.916ZM111 480.916L112 480.916L112 479.916L111 479.916L111 480.916ZM54.457 480.916L54.457 481.916L55.457 481.916L55.457 480.916L54.457 480.916ZM51.2344 461.727L50.4279 462.318L50.4327 462.324L51.2344 461.727ZM29.7012 461.434L30.4614 462.083L30.4677 462.076L30.4739 462.068L29.7012 461.434ZM26.2588 480.916L25.2588 480.916L25.2588 481.916L26.2588 481.916L26.2588 480.916ZM111 507.309L3.77343 507.309L3.77343 509.309L111 509.309L111 507.309ZM4.77343 508.309L4.77343 477.767L2.77343 477.767L2.77343 508.309L4.77343 508.309ZM4.77343 477.767C4.77343 465.8 5.33808 457.584 6.43048 453.024L4.48552 452.558C3.33182 457.373 2.77343 465.807 2.77343 477.767L4.77343 477.767ZM6.43323 453.012C7.48017 448.396 9.25709 444.454 11.7484 441.163L10.1539 439.956C7.46945 443.501 5.58426 447.713 4.48277 452.57L6.43323 453.012ZM11.7475 441.164C14.5735 437.443 18.175 434.593 22.5688 432.609L21.7456 430.786C17.0574 432.903 13.1882 435.961 10.1548 439.955L11.7475 441.164ZM22.5769 432.605C26.9745 430.572 31.8344 429.548 37.1719 429.548L37.1719 427.548C31.5718 427.548 26.422 428.624 21.7375 430.79L22.5769 432.605ZM37.1719 429.548C45.3058 429.548 51.8341 431.555 56.8424 435.487L58.0774 433.914C52.6365 429.642 45.6395 427.548 37.1719 427.548L37.1719 429.548ZM56.8434 435.488C61.7987 439.368 65.1398 445.076 66.8102 452.712L68.764 452.284C67.0165 444.296 63.4728 438.138 58.0765 433.913L56.8434 435.488ZM68.3473 453.326L111.56 424.103L110.44 422.446L67.2269 451.67L68.3473 453.326ZM110 423.274L110 456.307L112 456.307L112 423.274L110 423.274ZM110.494 455.444L68.5264 480.053L69.5381 481.779L111.506 457.169L110.494 455.444ZM69.0322 481.916L111 481.916L111 479.916L69.0322 479.916L69.0322 481.916ZM110 480.916L110 508.309L112 508.309L112 480.916L110 480.916ZM55.457 480.916L55.457 475.496L53.457 475.496L53.457 480.916L55.457 480.916ZM55.457 475.496C55.457 469.126 54.3788 464.27 52.036 461.129L50.4327 462.324C52.3868 464.945 53.457 469.268 53.457 475.496L55.457 475.496ZM52.0408 461.135C49.655 457.882 45.9422 456.332 41.1269 456.332L41.1269 458.332C45.4913 458.332 48.5169 459.712 50.428 462.318L52.0408 461.135ZM41.1269 456.332C35.6139 456.332 31.4458 457.734 28.9284 460.799L30.4739 462.068C32.4487 459.664 35.8978 458.332 41.1269 458.332L41.1269 456.332ZM28.9409 460.784C26.4076 463.749 25.2588 468.594 25.2588 475.057L27.2588 475.057C27.2588 468.726 28.4049 464.49 30.4614 462.083L28.9409 460.784ZM25.2588 475.057L25.2588 480.916L27.2588 480.916L27.2588 475.057L25.2588 475.057ZM26.2588 481.916L54.457 481.916L54.457 479.916L26.2588 479.916L26.2588 481.916ZM111 381.38L111.387 382.302L112 382.045L112 381.38L111 381.38ZM3.77343 426.351L2.77343 426.351L2.77343 427.854L4.16019 427.273L3.77343 426.351ZM3.77342 395.296L3.43658 394.354L2.77342 394.592L2.77342 395.296L3.77342 395.296ZM63.7588 373.836L63.4647 372.88L63.4431 372.887L63.4219 372.894L63.7588 373.836ZM68.373 372.664L68.6064 373.636L68.618 373.634L68.6295 373.631L68.373 372.664ZM78.1142 370.247L78.3459 371.22L78.3465 369.274L78.1142 370.247ZM63.7588 366.512L63.424 367.454L63.4332 367.457L63.4425 367.46L63.7588 366.512ZM3.77342 345.198L2.77342 345.198L2.77342 345.904L3.43862 346.141L3.77342 345.198ZM3.77342 314.144L4.16018 313.221L2.77342 312.64L2.77342 314.144L3.77342 314.144ZM111 359.114L112 359.114L112 358.449L111.387 358.192L111 359.114ZM110.613 380.458L3.38667 425.428L4.16019 427.273L111.387 382.302L110.613 380.458ZM4.77343 426.351L4.77342 395.296L2.77342 395.296L2.77343 426.351L4.77343 426.351ZM4.11027 396.237L64.0956 374.777L63.4219 372.894L3.43658 394.354L4.11027 396.237ZM64.0529 374.792C64.651 374.608 66.1547 374.225 68.6064 373.636L68.1397 371.692C65.7085 372.275 64.1361 372.674 63.4647 372.88L64.0529 374.792ZM68.6295 373.631C71.0101 372.999 74.2477 372.196 78.3459 371.22L77.8826 369.274C73.7777 370.252 70.5211 371.06 68.1166 371.698L68.6295 373.631ZM78.3465 369.274C75.0799 368.494 72.1322 367.763 69.5029 367.082L69.001 369.018C71.6452 369.703 74.6056 370.437 77.882 371.22L78.3465 369.274ZM69.5029 367.082C66.8651 366.398 65.0643 365.893 64.075 365.563L63.4425 367.46C64.5041 367.814 66.3654 368.334 69.001 369.018L69.5029 367.082ZM64.0936 365.569L4.10823 344.256L3.43862 346.141L63.424 367.454L64.0936 365.569ZM4.77342 345.198L4.77342 314.144L2.77342 314.144L2.77342 345.198L4.77342 345.198ZM3.38666 315.066L110.613 360.036L111.387 358.192L4.16018 313.221L3.38666 315.066ZM110 359.114L110 381.38L112 381.38L112 359.114L110 359.114ZM111 304.695L111 305.695L112 305.695L112 304.695L111 304.695ZM3.77342 304.695L2.77342 304.695L2.77342 305.695L3.77342 305.695L3.77342 304.695ZM3.77342 275.179L3.77342 274.179L2.77342 274.179L2.77342 275.179L3.77342 275.179ZM111 275.179L112 275.179L112 274.179L111 274.179L111 275.179ZM111 303.695L3.77342 303.695L3.77342 305.695L111 305.695L111 303.695ZM4.77342 304.695L4.77342 275.179L2.77342 275.179L2.77342 304.695L4.77342 304.695ZM3.77342 276.179L111 276.179L111 274.179L3.77342 274.179L3.77342 276.179ZM110 275.179L110 304.695L112 304.695L112 275.179L110 275.179ZM7.94822 173.812L7.94822 172.812L7.32137 172.812L7.04818 173.376L7.94822 173.812ZM39.8818 173.812L40.5512 174.554L42.4854 172.812L39.8818 172.812L39.8818 173.812ZM30.1406 185.823L31.0239 186.292L31.0273 186.286L31.0306 186.279L30.1406 185.823ZM35.6338 219.002L34.962 219.743L34.9624 219.743L35.6338 219.002ZM79.4326 218.855L80.114 219.587L80.1174 219.584L79.4326 218.855ZM84.8525 185.823L85.7403 185.363L85.7381 185.359L84.8525 185.823ZM74.9648 173.812L74.9648 172.812L72.3399 172.812L74.2994 174.558L74.9648 173.812ZM106.972 173.812L107.872 173.376L107.599 172.812L106.972 172.812L106.972 173.812ZM111.586 217.83L110.624 217.557L110.622 217.563L111.586 217.83ZM105.287 231.453L104.461 230.889L104.457 230.896L105.287 231.453ZM35.1211 252.107L34.7508 253.036L34.7544 253.038L35.1211 252.107ZM16.8105 240.022L17.5112 239.309L17.5075 239.305L16.8105 240.022ZM5.09178 222.884L4.16477 223.259L4.16578 223.261L5.09178 222.884ZM7.94822 174.812L39.8818 174.812L39.8818 172.812L7.94822 172.812L7.94822 174.812ZM39.2124 173.069C34.7067 177.129 31.3718 181.226 29.2506 185.367L31.0306 186.279C33.011 182.413 36.1702 178.502 40.5512 174.554L39.2124 173.069ZM29.2573 185.354C27.08 189.456 25.9912 193.865 25.9912 198.567L27.9912 198.567C27.9912 194.187 29.002 190.101 31.0239 186.292L29.2573 185.354ZM25.9912 198.567C25.9912 207.223 28.9733 214.312 34.962 219.743L36.3055 218.261C30.7708 213.242 27.9912 206.709 27.9912 198.567L25.9912 198.567ZM34.9624 219.743C40.8942 225.117 48.6208 227.766 58.0459 227.766L58.0459 225.766C49.0139 225.766 41.7992 223.238 36.3052 218.261L34.9624 219.743ZM58.0459 227.766C66.8622 227.766 74.2439 225.053 80.114 219.587L78.7512 218.124C73.2932 223.205 66.417 225.766 58.0459 225.766L58.0459 227.766ZM80.1174 219.584C85.9948 214.061 88.9287 207.029 88.9287 198.567L86.9287 198.567C86.9287 206.512 84.1986 213.005 78.7478 218.127L80.1174 219.584ZM88.9287 198.567C88.9287 193.869 87.8663 189.463 85.7403 185.363L83.9648 186.284C85.9403 190.094 86.9287 194.183 86.9287 198.567L88.9287 198.567ZM85.7381 185.359C83.5676 181.22 80.1842 177.124 75.6302 173.065L74.2994 174.558C78.7298 178.507 81.9382 182.419 83.9669 186.288L85.7381 185.359ZM74.9648 174.812L106.972 174.812L106.972 172.812L74.9648 172.812L74.9648 174.812ZM106.072 174.247C108.29 178.828 109.949 183.376 111.054 187.892L112.997 187.417C111.856 182.753 110.146 178.072 107.872 173.376L106.072 174.247ZM111.054 187.892C112.158 192.405 112.71 196.964 112.71 201.57L114.71 201.57C114.71 196.802 114.139 192.084 112.997 187.417L111.054 187.892ZM112.71 201.57C112.71 207.349 112.012 212.676 110.624 217.557L112.548 218.104C113.992 213.023 114.71 207.51 114.71 201.57L112.71 201.57ZM110.622 217.563C109.284 222.391 107.23 226.831 104.461 230.889L106.113 232.017C109.008 227.774 111.154 223.133 112.55 218.097L110.622 217.563ZM104.457 230.896C99.1747 238.771 92.5374 244.757 84.5412 248.875L85.4568 250.653C93.7692 246.372 100.657 240.151 106.118 232.01L104.457 230.896ZM84.5412 248.875C76.5438 252.993 67.524 255.062 57.4599 255.062L57.4599 257.062C67.8061 257.062 77.1456 254.933 85.4568 250.653L84.5412 248.875ZM57.4599 255.062C49.3648 255.062 42.0452 253.762 35.4878 251.177L34.7544 253.038C41.5759 255.727 49.1488 257.062 57.4599 257.062L57.4599 255.062ZM35.4913 251.178C28.8833 248.545 22.8907 244.592 17.5112 239.309L16.1098 240.736C21.6679 246.195 27.8823 250.299 34.7508 253.036L35.4913 251.178ZM17.5075 239.305C12.3755 234.317 8.55034 228.718 6.01778 222.506L4.16578 223.261C6.80899 229.745 10.7963 235.571 16.1135 240.74L17.5075 239.305ZM6.01878 222.509C3.48506 216.246 2.20994 209.271 2.20994 201.57L0.20994 201.57C0.20994 209.494 1.52271 216.728 4.16477 223.259L6.01878 222.509ZM2.20994 201.57C2.20994 196.964 2.76169 192.405 3.86586 187.892L1.92316 187.417C0.781236 192.084 0.209939 196.802 0.20994 201.57L2.20994 201.57ZM3.86586 187.892C4.97074 183.376 6.6301 178.828 8.84826 174.247L7.04818 173.376C4.77415 178.072 3.06437 182.753 1.92316 187.417L3.86586 187.892ZM111 157.332L111 158.332L112 158.332L112 157.332L111 157.332ZM3.77341 157.332L2.77341 157.332L2.77341 158.332L3.77341 158.332L3.77341 157.332ZM3.77341 91.6338L3.77341 90.6338L2.77341 90.6338L2.77341 91.6338L3.77341 91.6338ZM27.2842 91.6338L28.2842 91.6338L28.2842 90.6338L27.2842 90.6338L27.2842 91.6338ZM27.2842 128.841L26.2842 128.841L26.2842 129.841L27.2842 129.841L27.2842 128.841ZM45.8877 128.841L45.8877 129.841L46.8877 129.841L46.8877 128.841L45.8877 128.841ZM45.8877 93.7578L45.8877 92.7578L44.8877 92.7578L44.8877 93.7578L45.8877 93.7578ZM68.8857 93.7578L69.8857 93.7578L69.8857 92.7578L68.8857 92.7578L68.8857 93.7578ZM68.8857 128.841L67.8857 128.841L67.8857 129.841L68.8857 129.841L68.8857 128.841ZM86.9765 128.841L86.9765 129.841L87.9765 129.841L87.9765 128.841L86.9765 128.841ZM86.9765 91.6338L86.9765 90.6338L85.9765 90.6338L85.9765 91.6338L86.9765 91.6338ZM111 91.6338L112 91.6338L112 90.6338L111 90.6338L111 91.6338ZM111 156.332L3.77341 156.332L3.77341 158.332L111 158.332L111 156.332ZM4.77341 157.332L4.77341 91.6338L2.77341 91.6338L2.77341 157.332L4.77341 157.332ZM3.77341 92.6338L27.2842 92.6338L27.2842 90.6338L3.77341 90.6338L3.77341 92.6338ZM26.2842 91.6338L26.2842 128.841L28.2842 128.841L28.2842 91.6338L26.2842 91.6338ZM27.2842 129.841L45.8877 129.841L45.8877 127.841L27.2842 127.841L27.2842 129.841ZM46.8877 128.841L46.8877 93.7578L44.8877 93.7578L44.8877 128.841L46.8877 128.841ZM45.8877 94.7578L68.8857 94.7578L68.8857 92.7578L45.8877 92.7578L45.8877 94.7578ZM67.8857 93.7578L67.8857 128.841L69.8857 128.841L69.8857 93.7578L67.8857 93.7578ZM68.8857 129.841L86.9765 129.841L86.9765 127.841L68.8857 127.841L68.8857 129.841ZM87.9765 128.841L87.9765 91.6338L85.9765 91.6338L85.9765 128.841L87.9765 128.841ZM86.9765 92.6338L111 92.6338L111 90.6338L86.9765 90.6338L86.9765 92.6338ZM110 91.6338L110 157.332L112 157.332L112 91.6338L110 91.6338ZM76.3564 67.4639L75.6953 66.7136L74.674 67.6135L75.8381 68.3191L76.3564 67.4639ZM87.416 54.6465L88.2805 55.1491L88.283 55.1448L87.416 54.6465ZM87.9287 32.3809L87.158 33.0181L87.1642 33.0254L87.9287 32.3809ZM71.7422 31.8682L72.4821 32.5408L72.4901 32.532L72.4979 32.5231L71.7422 31.8682ZM65.7363 46.5898L66.7018 46.8503L66.7023 46.8483L65.7363 46.5898ZM10.9511 65.1201L11.6787 64.4341L11.6786 64.434L10.9511 65.1201ZM3.62692 21.6143L4.58333 21.9065L4.58643 21.8959L3.62692 21.6143ZM10.8047 6.52636L11.204 5.60956L10.4441 5.27862L9.97789 5.9638L10.8047 6.52636ZM31.8252 15.6816L32.586 16.3306L33.4618 15.3038L32.2245 14.7648L31.8252 15.6816ZM25.4531 25.9355L26.3742 26.3248L26.3775 26.317L26.3807 26.3091L25.4531 25.9355ZM25.8193 44.832L26.6173 44.2291L26.6087 44.2181L25.8193 44.832ZM38.7099 45.2715L39.4734 45.9175L39.4813 45.9078L38.7099 45.2715ZM43.3242 34.0654L42.3606 33.7978L42.3577 33.8088L43.3242 34.0654ZM43.6904 32.7471L44.6539 33.0147L44.6557 33.0082L43.6904 32.7471ZM54.3105 9.23632L53.6169 8.51599L53.6125 8.5202L54.3105 9.23632ZM63.832 3.45019L64.1668 4.39251L64.1707 4.39105L63.832 3.45019ZM103.529 12.6787L104.265 12.001L104.262 11.9985L103.529 12.6787ZM110.048 62.9961L110.971 63.3802L110.972 63.3776L110.048 62.9961ZM98.1093 80.6475L97.5911 81.5027L98.2772 81.9185L98.8319 81.3388L98.1093 80.6475ZM77.0176 68.2141C82.0033 63.8207 85.7697 59.4676 88.2805 55.1491L86.5515 54.1439C84.1794 58.2238 80.5728 62.4156 75.6953 66.7136L77.0176 68.2141ZM88.283 55.1448C90.7969 50.7706 92.0781 46.3769 92.0781 41.9756L90.0781 41.9756C90.0781 45.9726 88.9179 50.0262 86.549 54.1482L88.283 55.1448ZM92.0781 41.9756C92.0781 37.8825 90.9738 34.4412 88.6932 31.7363L87.1642 33.0254C89.0828 35.301 90.0781 38.2562 90.0781 41.9756L92.0781 41.9756ZM88.6993 31.7436C86.4147 28.9807 83.4737 27.5723 79.9453 27.5723L79.9453 29.5723C82.8622 29.5723 85.2435 30.7029 87.158 33.0181L88.6993 31.7436ZM79.9453 27.5723C76.1621 27.5723 73.1229 28.7481 70.9865 31.2133L72.4979 32.5231C74.17 30.5937 76.5995 29.5723 79.9453 29.5723L79.9453 27.5723ZM71.0022 31.1955C69.9067 32.4006 68.8649 34.2943 67.8499 36.7822C66.8274 39.2886 65.8017 42.4756 64.7703 46.3314L66.7023 46.8483C67.7216 43.038 68.7224 39.9384 69.7018 37.5377C70.6888 35.1183 71.6245 33.4842 72.4821 32.5408L71.0022 31.1955ZM64.7708 46.3294C61.9559 56.7639 58.3301 63.9751 53.9853 68.133L55.3681 69.5779C60.1054 65.0444 63.8526 57.4119 66.7018 46.8503L64.7708 46.3294ZM53.9853 68.133C49.6753 72.2576 43.7222 74.374 36 74.374L36 76.374C44.098 76.374 50.5961 74.1447 55.3681 69.5779L53.9853 68.133ZM36 74.374C25.9935 74.374 17.9167 71.0502 11.6787 64.4341L10.2236 65.8061C16.8762 72.8619 25.4986 76.374 36 76.374L36 74.374ZM11.6786 64.434C5.3867 57.7636 2.20993 49.1117 2.20993 38.3867L0.209932 38.3867C0.209933 49.5367 3.5273 58.7071 10.2237 65.8063L11.6786 64.434ZM2.20993 38.3867C2.20993 32.5705 3.00288 27.0787 4.58328 21.9065L2.67057 21.322C1.02831 26.6967 0.209932 32.3865 0.209932 38.3867L2.20993 38.3867ZM4.58643 21.8959C6.11863 16.6769 8.46543 11.7419 11.6314 7.08893L9.97789 5.9638C6.69857 10.7834 4.26022 15.9071 2.66742 21.3326L4.58643 21.8959ZM10.4054 7.44317L31.4259 16.5984L32.2245 14.7648L11.204 5.60956L10.4054 7.44317ZM31.0643 15.0327C28.1726 18.423 25.9875 21.9322 24.5255 25.5619L26.3807 26.3091C27.7508 22.9076 29.8136 19.5809 32.586 16.3306L31.0643 15.0327ZM24.532 25.5463C23.0203 29.1238 22.2558 32.6981 22.2558 36.2627L24.2558 36.2627C24.2558 32.9914 24.9562 29.6809 26.3742 26.3248L24.532 25.5463ZM22.2558 36.2627C22.2558 39.9413 23.152 43.0314 25.03 45.446L26.6087 44.2181C25.0687 42.2381 24.2558 39.6154 24.2558 36.2627L22.2558 36.2627ZM25.0214 45.4349C26.8608 47.8693 29.2984 49.1279 32.2646 49.1279L32.2646 47.1279C29.9574 47.1279 28.0982 46.1893 26.6172 44.2292L25.0214 45.4349ZM32.2646 49.1279C35.2187 49.1279 37.6561 48.0651 39.4733 45.9174L37.9465 44.6255C36.5412 46.2864 34.6816 47.1279 32.2646 47.1279L32.2646 49.1279ZM39.4813 45.9078C41.2431 43.7723 42.824 39.8467 44.2907 34.322L42.3577 33.8088C40.8947 39.3193 39.3994 42.8644 37.9386 44.6351L39.4813 45.9078ZM44.2877 34.3331L44.6539 33.0147L42.7269 32.4794L42.3607 33.7978L44.2877 34.3331ZM44.6557 33.0082C46.2586 27.0825 47.9329 22.1994 49.6738 18.3455C51.4194 14.4811 53.2067 11.7087 55.0085 9.95245L53.6125 8.5202C51.557 10.5237 49.6455 13.5496 47.8511 17.5222C46.0519 21.5052 44.3449 26.4976 42.7251 32.486L44.6557 33.0082ZM55.0042 9.95666C57.5308 7.52362 60.5796 5.66687 64.1668 4.39251L63.4972 2.50787C59.6626 3.87023 56.3637 5.87091 53.6169 8.51599L55.0042 9.95666ZM64.1707 4.39105C67.7088 3.11737 71.6692 2.47265 76.0634 2.47265L76.0634 0.47265C71.4733 0.472651 67.2794 1.1463 63.4933 2.50933L64.1707 4.39105ZM76.0634 2.47265C87.198 2.47265 96.075 6.117 102.796 13.3589L104.262 11.9985C97.1164 4.299 87.6828 0.47265 76.0634 0.47265L76.0634 2.47265ZM102.794 13.3564C109.472 20.6029 112.856 30.302 112.856 42.5615L114.856 42.5615C114.856 29.9187 111.356 19.6959 104.265 12.001L102.794 13.3564ZM112.856 42.5615C112.856 49.9174 111.607 56.5972 109.123 62.6146L110.972 63.3776C113.567 57.0903 114.856 50.1471 114.856 42.5615L112.856 42.5615ZM109.125 62.612C106.641 68.5825 102.737 74.365 97.3868 79.9561L98.8319 81.3388C104.322 75.6018 108.377 69.6167 110.971 63.3802L109.125 62.612ZM98.6276 79.7922L76.8747 66.6086L75.8381 68.3191L97.5911 81.5027L98.6276 79.7922Z" fill="url(#paint0_linear)" fill-opacity="0.15"/>
<defs>
<linearGradient id="paint0_linear" x1="-111.99" y1="602.422" x2="359.411" y2="432.036" gradientUnits="userSpaceOnUse">
<stop stop-color="#EC008C"/>
<stop offset="1" stop-color="#2B328C"/>
</linearGradient>
</defs>
</svg>
