<svg width="55" height="55" viewBox="0 0 55 55" fill="none" xmlns="http://www.w3.org/2000/svg">
<path d="M48.6711 42.9026C47.7697 42.9026 46.8684 43.0829 46.0572 43.5336L45.6066 43.8039L39.9283 38.1257L40.2888 37.675C42.6322 34.7007 43.8941 31.1855 43.8941 27.4C43.8941 23.7046 42.7224 20.1895 40.4691 17.3053L40.1086 16.7645L45.877 10.9961L46.3276 11.1763C47.1388 11.5368 47.95 11.7171 48.8513 11.7171C52.0961 11.7171 54.7099 9.10329 54.7099 5.85855C54.7099 2.61382 52.0961 0 48.8513 0C45.6066 0 42.9928 2.61382 42.9928 5.85855C42.9928 6.75987 43.173 7.57105 43.5336 8.38224L43.7138 8.8329L37.9454 14.6013L37.4046 14.2408C34.5204 11.9875 31.0053 10.8158 27.3099 10.8158C23.5243 10.8158 20.0092 12.0776 17.0349 14.4211L16.5842 14.7816L10.9059 9.10329L11.1763 8.65263C11.627 7.84145 11.8072 6.94013 11.8072 6.03882C11.7171 2.70395 9.10329 0.0901316 5.94868 0.0901316C2.70395 0.0901316 0.0901316 2.70395 0.0901316 5.94868C0.0901316 9.19342 2.70395 11.8072 5.94868 11.8072C6.75987 11.8072 7.57105 11.627 8.29211 11.2664L8.74276 11.0862L14.5112 16.8546L14.1507 17.3954C11.9875 20.2796 10.8158 23.7046 10.8158 27.4C10.8158 31.0954 11.9875 34.6105 14.2408 37.4947L14.6013 38.0355L8.8329 43.8039L8.38224 43.6237C7.57105 43.2632 6.75987 43.0829 5.85855 43.0829C2.61382 43.0829 0 45.6967 0 48.9414C0 52.1862 2.61382 54.8 5.85855 54.8C9.10329 54.8 11.7171 52.1862 11.7171 48.9414C11.7171 48.0401 11.5368 47.2289 11.1763 46.4178L10.9961 45.9671L16.7645 40.1987L17.3053 40.5592C20.1895 42.8125 23.7046 43.9842 27.4 43.9842C31.0053 43.9842 34.5204 42.8125 37.4046 40.6493L37.8553 40.2888L43.6237 46.0572L43.3533 46.3276C42.9928 47.0487 42.8125 47.8599 42.8125 48.6711C42.8125 51.9158 45.4263 54.5296 48.6711 54.5296C51.9158 54.5296 54.5296 51.9158 54.5296 48.6711C54.5296 45.5164 51.9158 42.9026 48.6711 42.9026ZM48.6711 2.97434C50.2934 2.97434 51.5553 4.32632 51.5553 5.85855C51.5553 7.48092 50.2934 8.74276 48.6711 8.74276C47.0487 8.74276 45.7868 7.39079 45.7868 5.85855C45.7868 4.32632 47.1388 2.97434 48.6711 2.97434ZM5.94868 8.8329C4.32632 8.8329 3.06447 7.48092 3.06447 5.94868C3.06447 4.32632 4.32632 3.06447 5.94868 3.06447C7.57105 3.06447 8.8329 4.41645 8.8329 5.94868C8.8329 7.48092 7.48092 8.8329 5.94868 8.8329ZM5.94868 51.6454C4.32632 51.6454 3.06447 50.2934 3.06447 48.7612C3.06447 47.1388 4.32632 45.877 5.94868 45.877C7.57105 45.877 8.8329 47.2289 8.8329 48.7612C8.8329 50.2934 7.48092 51.6454 5.94868 51.6454ZM33.8895 39.2072C31.9066 40.2888 29.6533 40.9197 27.3099 40.9197C24.9664 40.9197 22.7132 40.2888 20.7303 39.2072L20.2796 38.9368L20.4599 38.3961C21.2711 35.2414 24.1553 33.0783 27.4 33.0783C30.6447 33.0783 33.5289 35.2414 34.3401 38.3961L34.5204 38.9368L33.8895 39.2072ZM23.7046 26.5888C23.7046 24.6059 25.327 23.0737 27.2197 23.0737C29.1125 23.0737 30.7349 24.6961 30.7349 26.5888C30.7349 28.5717 29.1125 30.1941 27.2197 30.1941C25.327 30.1941 23.7046 28.4816 23.7046 26.5888ZM37.675 36.1428L36.9539 37.0441L36.5033 36.0526C35.6921 34.25 34.3401 32.7178 32.6276 31.7263L31.9066 31.2757L32.4474 30.6447C33.3487 29.473 33.8895 28.1211 33.8895 26.5888C33.8895 22.9836 31.0053 20.0993 27.4 20.0993C23.7947 20.0993 20.8204 22.9836 20.8204 26.5888C20.8204 28.0309 21.2711 29.473 22.2625 30.6447L22.8033 31.2757L22.0822 31.6362C20.3697 32.7178 19.0178 34.1599 18.2066 35.9625L17.7559 36.9539L16.9447 36.1428C14.8717 33.7092 13.7 30.5546 13.7 27.3099C13.7 19.8289 19.8289 13.7 27.3099 13.7C34.7908 13.7 40.9197 19.8289 40.9197 27.3099C40.9197 30.5546 39.748 33.7092 37.675 36.1428ZM48.6711 51.6454C47.0487 51.6454 45.7868 50.2934 45.7868 48.7612C45.7868 47.1388 47.0487 45.877 48.6711 45.877C50.2934 45.877 51.5553 47.2289 51.5553 48.7612C51.6454 50.2934 50.2934 51.6454 48.6711 51.6454Z" fill="url(#paint0_linear)"/>
<defs>
<linearGradient id="paint0_linear" x1="7.04136" y1="-13.6366" x2="71.5331" y2="43.9497" gradientUnits="userSpaceOnUse">
<stop stop-color="#EC008C"/>
<stop offset="1" stop-color="#2B328C"/>
</linearGradient>
</defs>
</svg>
