<svg width="328" height="779" viewBox="0 0 328 779" fill="none" xmlns="http://www.w3.org/2000/svg">
<path d="M1011.21 558.202C993.018 579.843 972.917 598.626 950.05 613.884C962.062 623.219 974.55 630.171 987.896 637.79C998.28 627.969 1009.33 617.291 1018.67 605.278C1040.19 579.347 1058.48 552.273 1072 524.248C1056.1 564.187 1033.05 602.699 1004 636.544C1002.67 638.26 1000.67 640.834 999.334 642.55C1013.35 649.311 1027.17 654.547 1042.51 659.591C1160.62 489.902 1157.29 265.749 1042.76 99.6834C1028.56 103.787 1013.69 108.749 999.876 115.903C1113.43 237.177 1121.04 427.495 1011.21 558.202ZM893.773 41.7058C750.981 -22.469 574.402 20.5866 480.683 162.437C399.916 284.078 409.897 450.093 505.818 560.414C567.414 631.675 649.582 669.381 732.498 676.018C742.324 698.791 754.533 722.04 767.217 742.906C652.667 755.725 531.998 719.751 442.47 629.536C306.13 493.309 290.789 272.211 406.232 118.343C504.531 -11.6921 665.382 -62.842 812.355 -27.0692C645.456 -79.7023 454.11 -24.7276 345.148 131.425C231.519 293.584 250.483 518.873 389.78 660.15C498.949 771.133 651.355 806.999 788.005 772.823C802.214 793.498 819.281 812.266 835.491 830.366C668.835 903.153 469.26 880.173 321.202 755.482C297.844 735.955 277.345 714.52 259.037 692.036C249.884 680.794 233.302 684.423 229.591 698.052C217.217 735.226 186.257 766.213 142.612 776.333C95.9175 786.836 46.9231 766.652 20.4126 728.16C-22.5965 663.086 6.43628 579.684 74.281 552.589C101.629 542.189 130.982 541.605 156.05 550.077C165.773 553.504 176.157 543.683 172.626 534.059C121.192 377.116 149.899 198.505 264.588 63.3167C438.526 -142.802 746.536 -169.044 953.13 2.51132C932.073 13.6706 912.065 27.0215 893.773 41.7058Z" fill="url(#paint0_linear)"/>
<defs>
<linearGradient id="paint0_linear" x1="904.718" y1="1234.58" x2="654.959" y2="-428.675" gradientUnits="userSpaceOnUse">
<stop stop-color="#EC008C"/>
<stop offset="1" stop-color="#2B328C"/>
</linearGradient>
</defs>
</svg>
