<svg width="553" height="545" viewBox="0 0 553 545" fill="none" xmlns="http://www.w3.org/2000/svg">
<path d="M552.668 223.143C553.42 257.692 532.408 290.116 500.137 304.201C476.658 314.654 451.946 314.121 430.49 305.106C421.458 301.249 411.912 308.875 413.197 318.712C419.724 365.601 416.911 415.523 403.216 464.381C364.735 604.171 251.57 703.221 118.684 728.903C121.804 710.635 123.227 691.715 123.502 672.743C222.405 635.183 301.054 548.967 321.128 434.815C346.636 289.266 262.909 142.273 124.286 90.6131C-9.24782 40.9072 -150.55 87.4972 -230.571 191.484C-152.419 103.521 -23.062 66.75 97.8928 114.741C222.789 164.635 298.548 296.89 278.199 430.014C263.438 528.298 203.024 605.551 124.086 646.883C123.213 627.86 120.592 609.334 117.422 590.208C166.352 550.983 200.031 492.665 207.763 422.83C219.542 314.058 155.83 208.23 54.6862 167.455C-62.7725 118.469 -189.199 166.877 -250.643 267.094C-267.866 266.322 -285.689 266.098 -303.015 267.623C-248.336 74.4847 -47.6319 -39.6244 146.158 13.3579C242.23 38.9492 318.832 101.06 365.904 180.255C370.685 189.098 383.367 188.516 388.372 179.536C400.232 158.783 420.472 143.583 444.894 137.775C498.929 125.816 551.797 165.578 552.668 223.143ZM-284.066 358.213C-295.651 359.995 -306.139 362.976 -316.627 365.958C-317.081 517.231 -224.356 655.999 -79.5462 710.813C-72.2452 701.936 -65.4924 692.459 -59.8365 681.783C-61.5331 681.131 -63.8295 681.028 -65.5261 680.377C-97.9157 671.447 -128.351 657.427 -155.188 640.116C-134.435 651.977 -111.831 661.043 -87.9757 667.865C-77.1963 671.225 -66.3655 673.436 -55.4832 674.499C-50.4271 664.371 -45.9193 653.643 -42.0114 643.464C-62.131 643.137 -82.6959 639.914 -103.158 634.395C-226.53 601.827 -302.803 481.055 -284.066 358.213Z" fill="url(#paint0_linear)"/>
<defs>
<linearGradient id="paint0_linear" x1="-509.908" y1="134.943" x2="743.352" y2="219.076" gradientUnits="userSpaceOnUse">
<stop stop-color="#F2643F"/>
<stop offset="1" stop-color="#C3188A"/>
</linearGradient>
</defs>
</svg>
