<svg width="416" height="545" viewBox="0 0 416 545" fill="none" xmlns="http://www.w3.org/2000/svg">
<path d="M656.182 423.984C650.714 404.19 643.122 385.707 632.638 368.715C643.394 366.184 653.742 365.371 664.859 364.377C668.746 374.002 672.813 384.396 675.343 395.152C681.715 418.787 685.601 442.196 686.053 464.792C687.635 433.61 684.065 401.208 675.118 370.071C674.756 368.534 674.214 366.23 673.852 364.693C685.15 364.467 695.86 365.19 707.52 366.501C734.181 514.276 664.179 661.282 538.321 736.299C530.186 729.294 521.871 721.521 514.912 712.618C626.58 666.886 689.171 543.515 656.182 423.984ZM422.405 729.519C308.705 728.704 205.127 646.862 186.148 524.846C169.609 420.093 226.415 313.487 323.125 269.653C385.353 241.228 451.016 241.184 507.776 261.882C521.153 249.816 536.247 238.157 550.934 228.215C479.171 185.102 388.608 172.357 302.202 204.848C170.966 253.563 93.9593 394.92 123.649 531.443C149.226 647.042 239.969 729.472 347.84 750.306C221.711 734.578 111.988 640.399 87.27 504.328C61.2864 362.88 141.954 219.85 276.669 168.695C382.327 128.431 493.813 150.847 573.71 214.748C589.346 205.393 606.293 198.163 622.472 191.113C534.44 92.641 395.704 47.4486 260.22 85.0012C238.89 90.8306 218.87 98.7841 199.98 108.093C190.535 112.748 180.684 105.336 182.356 95.2136C185.429 66.924 174.358 37.0977 148.599 17.2134C120.942 -3.84595 82.4846 -5.33763 53.3361 12.0607C5.25248 42.022 -0.803729 105.877 35.8007 144.29C50.7137 159.429 69.9198 168.693 89.0357 170.682C96.4922 171.36 100.378 180.986 95.1362 186.273C13.701 274.35 -21.3685 400.975 13.4727 524.935C65.983 713.653 261.434 824.148 449.746 773.354C439.216 759.616 430.043 744.748 422.405 729.519Z" fill="url(#paint0_linear)"/>
<defs>
<linearGradient id="paint0_linear" x1="790.45" y1="-54.8613" x2="122.43" y2="967.89" gradientUnits="userSpaceOnUse">
<stop stop-color="#F2643F"/>
<stop offset="1" stop-color="#C3188A"/>
</linearGradient>
</defs>
</svg>
