<svg width="679" height="374" viewBox="0 0 679 374" fill="none" xmlns="http://www.w3.org/2000/svg">
<path d="M-244.859 -275.058C-239.044 -246.74 -230.123 -220.063 -216.999 -195.208C-232.345 -192.667 -246.957 -192.501 -262.666 -192.152C-267.217 -206.039 -271.95 -221.022 -274.491 -236.367C-281.212 -270.166 -284.464 -303.412 -282.968 -335.192C-288.13 -291.543 -286.17 -245.695 -276.538 -201.117C-276.175 -198.925 -275.631 -195.637 -275.268 -193.444C-291.158 -194.192 -306.133 -196.218 -322.386 -199.158C-345.904 -409.235 -233.721 -609.12 -49.8702 -702.623C-39.1051 -692.017 -28.1585 -680.315 -19.2227 -667.155C-180.382 -613.446 -279.926 -446.06 -244.859 -275.058ZM112.304 -682.173C271.931 -670.31 409.7 -545.591 424.856 -372.419C438.211 -223.724 348.372 -79.3422 208.403 -26.8892C118.317 7.16973 26.0838 1.04242 -51.6896 -33.3806C-71.6158 -17.6939 -93.9158 -2.74036 -115.483 9.83943C-18.7488 77.1607 107.254 103.599 231.682 66.1068C420.606 10.0537 542.095 -181.236 513.264 -375.794C488.236 -540.575 368.549 -664.909 218.998 -704.341C394.675 -670.36 539.913 -527.733 561.805 -334.279C584.967 -133.152 458.179 60.1415 264.137 119.294C111.935 165.889 -42.5443 123.894 -148.744 26.6076C-171.588 38.2728 -196.073 46.8311 -219.462 55.2079C-105.096 201.82 85.5118 278.375 279.351 238.401C309.861 232.224 338.73 222.94 366.14 211.645C379.845 205.997 392.984 217.336 389.681 231.397C382.698 270.842 395.437 313.78 429.743 344.138C466.605 376.324 520.481 382.045 563.063 360.355C633.425 322.805 647.951 233.685 600.158 176.28C580.639 153.61 554.535 138.787 527.873 134.192C517.463 132.536 512.912 118.65 520.774 111.718C643.46 -4.31774 704.655 -178.869 667.403 -356.266C611.437 -626.289 347.325 -799.913 78.0348 -746.321C91.5292 -726.032 103.013 -704.284 112.304 -682.173Z" fill="url(#paint0_linear)"/>
<defs>
<linearGradient id="paint0_linear" x1="-478.591" y1="384.867" x2="556.118" y2="-988.708" gradientUnits="userSpaceOnUse">
<stop stop-color="#F2643F"/>
<stop offset="1" stop-color="#C3188A"/>
</linearGradient>
</defs>
</svg>
