<svg width="74" height="55" viewBox="0 0 74 55" fill="none" xmlns="http://www.w3.org/2000/svg">
<path opacity="0.8" d="M35.007 38.5C35.007 43.0833 33.3895 46.9792 30.1546 50.1875C27.0351 53.3958 23.1647 55 18.5433 55C12.9977 55 8.4918 53.1094 5.02576 49.3281C1.67525 45.4323 0 40.3333 0 34.0312C0 27.8438 0.750976 22.5729 2.25293 18.2188C3.87041 13.8646 6.12334 10.3698 9.01171 7.73437C11.9001 5.09895 15.4239 3.15104 19.5831 1.89062C23.8579 0.630207 28.7104 0 34.1405 0V10.3125C30.6745 10.3125 27.7283 10.7135 25.3021 11.5156C22.8759 12.3177 20.9118 13.349 19.4098 14.6094C17.7923 15.8698 16.5792 17.3021 15.7705 18.9062C14.9617 20.3958 14.4418 21.9427 14.2108 23.5469C14.4418 23.3177 14.9617 23.0885 15.7705 22.8594C16.6948 22.5156 17.619 22.3437 18.5433 22.3437C23.6269 22.3437 27.6128 23.9479 30.5012 27.1563C33.5051 30.25 35.007 34.0313 35.007 38.5ZM74 38.5C74 43.0833 72.3825 46.9792 69.1475 50.1875C66.0281 53.3958 62.1577 55 57.5363 55C51.9906 55 47.4848 53.1094 44.0187 49.3281C40.6682 45.4323 38.993 40.3333 38.993 34.0312C38.993 27.8438 39.7439 22.5729 41.2459 18.2188C42.7479 13.8646 44.943 10.3698 47.8314 7.73437C50.8353 5.09895 54.4169 3.15104 58.5761 1.89062C62.8509 0.630207 67.7034 0 73.1335 0V10.3125C69.6674 10.3125 66.7213 10.7135 64.2951 11.5156C61.8689 12.3177 59.847 13.349 58.2295 14.6094C56.612 15.8698 55.3989 17.3021 54.5902 18.9062C53.897 20.3958 53.4348 21.9427 53.2038 23.5469C53.4348 23.3177 53.9547 23.0885 54.7635 22.8594C55.6877 22.5156 56.612 22.3437 57.5363 22.3437C62.6198 22.3437 66.6058 23.9479 69.4941 27.1563C72.4981 30.25 74 34.0313 74 38.5Z" fill="url(#paint0_linear)"/>
<defs>
<linearGradient id="paint0_linear" x1="9.52407" y1="-13.6863" x2="73.5662" y2="63.38" gradientUnits="userSpaceOnUse">
<stop stop-color="#EC008C"/>
<stop offset="1" stop-color="#2B328C"/>
</linearGradient>
</defs>
</svg>
